<?xml version="1.0" encoding="UTF-8"?>
<svg width="13px" height="14px" viewBox="0 0 13 14" version="1.1" xmlns="http://www.w3.org/2000/svg" xmlns:xlink="http://www.w3.org/1999/xlink">
    <!-- Generator: Sketch 45.2 (43514) - http://www.bohemiancoding.com/sketch -->
    <title>arrow copy 4</title>
    <desc>Created with Sketch.</desc>
    <defs></defs>
    <g id="Page-1" stroke="none" stroke-width="1" fill="none" fill-rule="evenodd">
        <g id="tela-1" transform="translate(-795.000000, -1920.000000)" fill="#2266A7">
            <g id="Group-20" transform="translate(127.000000, 80.000000)">
                <g id="Group-19" transform="translate(0.000000, 184.000000)">
                    <g id="conteudo">
                        <g id="Group-8">
                            <g id="conteudo">
                                <g id="Group-18" transform="translate(6.000000, 1159.000000)">
                                    <g id="Lista-de-Erros" transform="translate(0.000000, 38.000000)">
                                        <g id="paginacao" transform="translate(612.000000, 451.000000)">
                                            <g id="bolinhas">
                                                <g id="Group-4" transform="translate(57.000000, 15.000000) rotate(-360.000000) translate(-57.000000, -15.000000) translate(42.000000, 0.000000)">
                                                    <g id="arrow-copy-4" transform="translate(8.000000, 8.000000)">
                                                        <path d="M5.47240584,6.57016432 C5.31482171,6.74174187 5.3124899,7.01738517 5.47316331,7.19232633 L11.1794834,13.4053657 C11.3374859,13.5773988 11.5922029,13.5789837 11.7509035,13.4061904 L12.6071722,12.4738854 C12.7647563,12.3023079 12.7670881,12.0266646 12.6064147,11.8517234 L6.9000946,5.63868403 C6.74209213,5.46665099 6.48737518,5.46506605 6.3286745,5.6378593 L5.47240584,6.57016432" id="Rectangle-74"></path>
                                                        <path d="M6.3286745,8.13295361 C6.48625863,8.30453117 6.73942119,8.30707004 6.9000946,8.13212888 L12.6064147,1.9190895 C12.7644172,1.74705646 12.7658729,1.46972074 12.6071722,1.29692748 L11.7509035,0.364622467 C11.5933194,0.193044914 11.3401568,0.190506038 11.1794834,0.365447197 L5.47316331,6.57848658 C5.31516084,6.75051962 5.31370516,7.02785534 5.47240584,7.2006486 L6.3286745,8.13295361" id="Rectangle-75"></path>
                                                        <path d="M0.472405843,6.57016432 C0.314821707,6.74174187 0.312489895,7.01738517 0.47316331,7.19232633 L6.17948343,13.4053657 C6.33748591,13.5773988 6.59220285,13.5789837 6.75090354,13.4061904 L7.60717219,12.4738854 C7.76475633,12.3023079 7.76708814,12.0266646 7.60641473,11.8517234 L1.9000946,5.63868403 C1.74209213,5.46665099 1.48737518,5.46506605 1.3286745,5.6378593 L0.472405843,6.57016432" id="Rectangle-74"></path>
                                                        <path d="M1.3286745,8.13295361 C1.48625863,8.30453117 1.73942119,8.30707004 1.9000946,8.13212888 L7.60641473,1.9190895 C7.7644172,1.74705646 7.76587288,1.46972074 7.60717219,1.29692748 L6.75090354,0.364622467 C6.5933194,0.193044914 6.34015685,0.190506038 6.17948343,0.365447197 L0.47316331,6.57848658 C0.315160836,6.75051962 0.313705157,7.02785534 0.472405843,7.2006486 L1.3286745,8.13295361" id="Rectangle-75"></path>
                                                    </g>
                                                </g>
                                            </g>
                                        </g>
                                    </g>
                                </g>
                            </g>
                        </g>
                    </g>
                </g>
            </g>
        </g>
    </g>
</svg>