<?xml version="1.0" encoding="UTF-8"?>
<svg width="47px" height="34px" viewBox="0 0 47 34" version="1.1" xmlns="http://www.w3.org/2000/svg" xmlns:xlink="http://www.w3.org/1999/xlink">
    <!-- Generator: Sketch 45.2 (43514) - http://www.bohemiancoding.com/sketch -->
    <title>Slice 1</title>
    <desc>Created with Sketch.</desc>
    <defs></defs>
    <g id="Page-1" stroke="none" stroke-width="1" fill="none" fill-rule="evenodd" stroke-linejoin="round">
        <g id="Group-2" transform="translate(1.000000, 1.000000)" stroke="#FFFFFF" stroke-width="2">
            <path d="M44.3662623,28.7559108 C44.3662623,30.1172977 43.262857,31.2207031 41.90147,31.2207031 L2.46479235,31.2207031 C1.10340538,31.2207031 0,30.1172977 0,28.7559108 L0,4.10798725 C0,2.74660028 1.10340538,1.6431949 2.46479235,1.6431949 L41.90147,1.6431949 C43.262857,1.6431949 44.3662623,2.74660028 44.3662623,4.10798725 L44.3662623,28.7559108 Z" id="Path"></path>
            <polygon id="Path" points="4.9295847 8.21597451 11.5023643 8.21597451 11.5023643 4.9295847 4.9295847 4.9295847"></polygon>
            <polygon id="Path" points="4.9295847 1.6431949 4.9295847 0 9.85916941 0 9.85916941 1.6431949"></polygon>
            <path d="M37.698999,14.9366417 C38.6463009,22.4624743 32.3216437,28.7871315 24.7966327,27.8398296 C19.669043,27.194054 15.5290134,23.0540245 14.8832378,17.9272564 C13.935936,10.4014237 20.2605931,4.07676655 27.7856042,5.02406841 C32.9131939,5.66902241 37.0532234,9.80987356 37.698999,14.9366417 Z" id="Path"></path>
        </g>
    </g>
</svg>