<?xml version="1.0" encoding="utf-8"?>
<!-- Generator: Adobe Illustrator 24.1.2, SVG Export Plug-In . SVG Version: 6.00 Build 0)  -->
<svg version="1.1" id="Camada_1" xmlns="http://www.w3.org/2000/svg" xmlns:xlink="http://www.w3.org/1999/xlink" x="0px" y="0px"
	 viewBox="0 0 25 25" style="enable-background:new 0 0 25 25;" xml:space="preserve">
<style type="text/css">
	.st0{fill:none;stroke:#FFFFFF;stroke-width:0.6;stroke-linecap:round;stroke-linejoin:round;stroke-miterlimit:10;}
</style>
<g>
	<path class="st0" d="M4.1,20.1C4.1,20.1,4.1,20.1,4.1,20.1C4.1,20.1,4.1,20.1,4.1,20.1c0-0.1,0-0.1,0-0.2c0.2-1,0.5-2.2,0.8-3.1
		c0.6-1.6,3.6-2,4.9-2.8"/>
	<path class="st0" d="M15.1,14c1.3,0.9,4.4,1.4,5,3c0.3,0.9,0.6,2.1,0.8,3.1c0,0,0,0.1,0,0.1c0,0,0,0,0,0c0,0,0,0,0,0"/>
	<path class="st0" d="M16.5,8.1c0-2.2-1.8-3.9-3.9-4h0c-2.2,0-3.9,1.8-3.9,4C8.5,8.1,8.4,8.2,8.4,8.3c-0.3,0.5-0.2,1.4,0.1,2
		c0.2,0.4,0.5,0.6,0.7,0.6c0.5,1.1,1.6,2.9,3.2,3c1.7,0,2.8-1.8,3.3-3c0.7-0.2,1.1-1.1,1.1-1.8C16.8,8.6,16.7,8.3,16.5,8.1z"/>
	<ellipse transform="matrix(0.9129 -0.4083 0.4083 0.9129 -4.014 6.1923)" class="st0" cx="12.5" cy="12.5" rx="11.5" ry="11.5"/>
</g>
</svg>
