<?xml version="1.0" encoding="UTF-8"?>
<svg width="23px" height="19px" viewBox="0 0 23 19" version="1.1" xmlns="http://www.w3.org/2000/svg" xmlns:xlink="http://www.w3.org/1999/xlink">
    <!-- Generator: Sketch 45.2 (43514) - http://www.bohemiancoding.com/sketch -->
    <title>iconfinder_00-ELASTOFONT-STORE-READY_sliders_2738302</title>
    <desc>Created with Sketch.</desc>
    <defs></defs>
    <g id="Page-1" stroke="none" stroke-width="1" fill="none" fill-rule="evenodd">
        <g id="Artboard-Copy-3" transform="translate(-132.000000, -271.000000)" fill-rule="nonzero" fill="#26445A">
            <g id="Group-20" transform="translate(127.000000, 80.000000)">
                <g id="Group-19" transform="translate(0.000000, 184.000000)">
                    <g id="conteudo">
                        <g id="Group-8">
                            <g id="conteudo">
                                <g id="Group-17">
                                    <g id="Group-16" transform="translate(5.000000, 0.000000)">
                                        <g id="iconfinder_00-ELASTOFONT-STORE-READY_sliders_2738302" transform="translate(0.550308, 6.915601)">
                                            <path d="M0.700646256,4.32241908 L6.94140419,4.32241908 C7.25489322,5.57870209 8.34634595,6.5132923 9.6530443,6.5132923 C10.9597427,6.5132923 12.0511954,5.57870209 12.3646844,4.32241908 L21.7200339,4.32241908 C22.1068491,4.32241908 22.4206802,3.99658234 22.4206802,3.59496961 C22.4206802,3.19335689 22.1068491,2.86752015 21.7200339,2.86752015 L12.3646844,2.86752015 C12.0511954,1.61123714 10.9597427,0.676646929 9.6530443,0.676646929 C8.34634595,0.676646929 7.25489322,1.61123714 6.94140419,2.86752015 L0.700646256,2.86752015 C0.313831135,2.86752015 0,3.19335689 0,3.59496961 C0,3.99658234 0.313831135,4.32241908 0.700646256,4.32241908 Z M9.6530443,2.13154585 C10.4303238,2.13154585 11.0625475,2.78795532 11.0625475,3.59496961 C11.0625475,4.40198391 10.4303238,5.05839337 9.6530443,5.05839337 C8.87576482,5.05839337 8.24354115,4.40198391 8.24354115,3.59496961 C8.24354115,2.78795532 8.87576491,2.13154585 9.6530443,2.13154585 Z" id="Shape"></path>
                                            <path d="M21.7200339,8.68711585 L20.2195859,8.68711585 C19.9060968,7.43083284 18.8146441,6.49624263 17.5079458,6.49624263 C16.2012474,6.49624263 15.1097946,7.43083284 14.7963056,8.68711585 L0.700646256,8.68711585 C0.313831135,8.68711585 0,9.01295259 0,9.41456532 C0,9.81617804 0.313831135,10.1420148 0.700646256,10.1420148 L14.7963056,10.1420148 C15.1097946,11.3982978 16.2012473,12.332888 17.5079457,12.332888 C18.814644,12.332888 19.9060967,11.3982978 20.2195858,10.1420148 L21.7200339,10.1420148 C22.1068491,10.1420148 22.4206802,9.81617804 22.4206802,9.41456532 C22.4206802,9.01295259 22.1068491,8.68711585 21.7200339,8.68711585 Z M17.5079457,10.8779891 C16.7306662,10.8779891 16.0984424,10.2215796 16.0984424,9.41456532 C16.0984424,8.60755102 16.7306662,7.95114156 17.5079457,7.95114156 C18.2852252,7.95114156 18.9174489,8.60755112 18.9174489,9.41456532 C18.9174489,10.2215795 18.2852252,10.8779891 17.5079457,10.8779891 Z" id="Shape"></path>
                                            <path d="M21.7200339,14.5067116 L8.14444249,14.5067116 C7.83101045,13.2504285 6.7396148,12.3158383 5.43365764,12.3158383 C4.12695919,12.3158383 3.03550656,13.2504285 2.72201752,14.5067116 L0.700646256,14.5067116 C0.313831135,14.5067116 0,14.8325483 0,15.234161 C0,15.6357737 0.313831135,15.9616105 0.700646256,15.9616105 L2.72201752,15.9616105 C3.03550656,17.2178935 4.12695928,18.1524837 5.43365764,18.1524837 C6.7396148,18.1524837 7.83101045,17.2178935 8.14444249,15.9616105 L21.7200339,15.9616105 C22.1068491,15.9616105 22.4206802,15.6357737 22.4206802,15.234161 C22.4206802,14.8325483 22.1068491,14.5067116 21.7200339,14.5067116 Z M5.43365773,16.6975848 C4.65637824,16.6975848 4.02415448,16.0411753 4.02415448,15.234161 C4.02415448,14.4271467 4.65637824,13.7707373 5.43365773,13.7707373 C6.21002488,13.7707373 6.84224864,14.4271467 6.84224864,15.234161 C6.84224864,16.0411753 6.21002479,16.6975848 5.43365773,16.6975848 Z" id="Shape"></path>
                                        </g>
                                    </g>
                                </g>
                            </g>
                        </g>
                    </g>
                </g>
            </g>
        </g>
    </g>
</svg>