<?xml version="1.0" encoding="utf-8"?>
<!-- Generator: Adobe Illustrator 19.0.0, SVG Export Plug-In . SVG Version: 6.00 Build 0)  -->
<svg version="1.1" id="Camada_1" xmlns="http://www.w3.org/2000/svg" xmlns:xlink="http://www.w3.org/1999/xlink" x="0px" y="0px"
	 viewBox="0 0 30 30" style="enable-background:new 0 0 30 30;" xml:space="preserve">
<style type="text/css">
	.st0{fill:#99BEE6;}
	.st1{fill:#D8E8F9;}
	.st2{fill:#FFFFFF;}
	.st3{fill:#6A96CF;}
	.st4{fill:#3967AF;}
</style>
<g>
	<path id="XMLID_54_" class="st0" d="M26.1,13.2c-1.2-1.2-2-1.2-2.7-1.2H6.6c-0.8,0-1.6,0-2.7,1.2L3.1,14v0.9h23.8V14L26.1,13.2z"/>
	<path id="XMLID_53_" class="st1" d="M5.4,13.2c1.2-1.2,2-1.2,2.7-1.2H6.6c-0.8,0-1.6,0-2.7,1.2L3.1,14v0.9h1.6V14L5.4,13.2z"/>
	<path id="XMLID_52_" class="st2" d="M4.3,13.2c1.2-1.2,2-1.2,2.7-1.2H6.6c-0.8,0-1.6,0-2.7,1.2L3.1,14v0.9h0.4V14L4.3,13.2z"/>
	<path id="XMLID_51_" class="st1" d="M24.6,13.2c-1.2-1.2-2-1.2-2.7-1.2h1.6c0.8,0,1.6,0,2.7,1.2l0.8,0.8v0.9h-1.6V14L24.6,13.2z"/>
	<path id="XMLID_50_" class="st0" d="M26.1,13.2c-1.2-1.2-2-1.2-2.7-1.2H23c0.8,0,1.6,0,2.7,1.2l0.8,0.8v0.9h0.4V14L26.1,13.2z"/>
	<polygon id="XMLID_49_" class="st3" points="22.2,12.9 7.8,12.9 7.4,13.6 22.6,13.6 	"/>
	<polygon id="XMLID_48_" class="st2" points="21.4,13.6 8.6,13.6 8.6,2.7 18.7,2.7 21.4,5.8 	"/>
	<path id="XMLID_47_" class="st0" d="M26.1,14.4H3.9c-0.6,0-1.2,0.5-1.2,1.2v9c0,0.6,0.5,1.2,1.2,1.2h22.3c0.6,0,1.2-0.5,1.2-1.2v-9
		C27.3,14.9,26.8,14.4,26.1,14.4z"/>
	<rect id="XMLID_46_" x="6.6" y="21.8" class="st3" width="16.8" height="2"/>
	<polygon id="XMLID_45_" class="st2" points="21.9,23.8 8.1,23.8 7,26.5 23,26.5 	"/>
	<rect id="XMLID_44_" x="7" y="26.5" class="st1" width="16" height="0.8"/>
	<rect id="XMLID_43_" x="13.6" y="26.5" class="st0" width="2.7" height="0.8"/>
	<g>
		<polygon id="XMLID_42_" class="st1" points="22.1,24.2 21.9,23.8 8.1,23.8 7.9,24.2 		"/>
		<rect id="XMLID_41_" x="8.6" y="13.2" class="st1" width="12.9" height="0.4"/>
		<path id="XMLID_40_" class="st1" d="M4.6,14.4H3.9c-0.6,0-1.2,0.5-1.2,1.2v9c0,0.6,0.5,1.2,1.2,1.2h0.8V14.4z"/>
	</g>
	<path id="XMLID_39_" class="st2" d="M3.1,24.6v-9c0-0.6,0.5-1.2,1.2-1.2H3.9c-0.6,0-1.2,0.5-1.2,1.2v9c0,0.6,0.5,1.2,1.2,1.2h0.4
		C3.6,25.7,3.1,25.2,3.1,24.6z"/>
	<path id="XMLID_38_" class="st1" d="M25.4,25.7h0.8c0.6,0,1.2-0.5,1.2-1.2v-9c0-0.6-0.5-1.2-1.2-1.2h-0.8V25.7z"/>
	<path id="XMLID_37_" class="st0" d="M25.9,14.4h-0.4c0.6,0,1.2,0.5,1.2,1.2v9c0,0.6-0.5,1.2-1.2,1.2h0.4c0.6,0,1.2-0.5,1.2-1.2v-9
		C27.1,14.9,26.6,14.4,25.9,14.4z"/>
	<g>
		<path id="XMLID_36_" class="st4" d="M23.4,17c-0.1,0-0.2-0.1-0.2-0.2c0-0.1,0.1-0.2,0.2-0.2h0c0.1,0,0.2,0.1,0.2,0.2
			C23.6,16.9,23.5,17,23.4,17z"/>
		<path id="XMLID_35_" class="st4" d="M22.2,17c-0.1,0-0.2-0.1-0.2-0.2c0-0.1,0.1-0.2,0.2-0.2h0c0.1,0,0.2,0.1,0.2,0.2
			C22.4,16.9,22.3,17,22.2,17z"/>
		<path id="XMLID_34_" class="st4" d="M21.1,17c-0.1,0-0.2-0.1-0.2-0.2c0-0.1,0.1-0.2,0.2-0.2h0c0.1,0,0.2,0.1,0.2,0.2
			C21.3,16.9,21.2,17,21.1,17z"/>
		<path id="XMLID_33_" class="st4" d="M26.1,25.9c-0.1,0-0.2-0.1-0.2-0.2c0-0.1,0.1-0.2,0.2-0.2c0.5,0,1-0.4,1-1v-9c0-0.5-0.4-1-1-1
			H3.9c-0.5,0-1,0.4-1,1v9c0,0.5,0.4,1,1,1c0.1,0,0.2,0.1,0.2,0.2c0,0.1-0.1,0.2-0.2,0.2c-0.8,0-1.4-0.6-1.4-1.4v-9
			c0-0.8,0.6-1.4,1.4-1.4h22.3c0.8,0,1.4,0.6,1.4,1.4v9C27.5,25.3,26.9,25.9,26.1,25.9z"/>
		<path id="XMLID_32_" class="st4" d="M3.1,14.2c0,0-0.1,0-0.1-0.1c-0.1-0.1-0.1-0.2,0-0.3l0.8-0.8c1.2-1.2,2.1-1.2,2.9-1.2
			c0.1,0,0.2,0.1,0.2,0.2c0,0.1-0.1,0.2-0.2,0.2c-0.8,0-1.5,0-2.6,1.1l-0.8,0.8C3.2,14.2,3.1,14.2,3.1,14.2z"/>
		<path id="XMLID_31_" class="st4" d="M26.9,14.2c0,0-0.1,0-0.1-0.1L26,13.4c-1.1-1.1-1.8-1.1-2.6-1.1c-0.1,0-0.2-0.1-0.2-0.2
			c0-0.1,0.1-0.2,0.2-0.2c0.8,0,1.6,0,2.9,1.2l0.8,0.8c0.1,0.1,0.1,0.2,0,0.3C27,14.2,27,14.2,26.9,14.2z"/>
		<path id="XMLID_30_" class="st4" d="M7.8,12.3H6.6c-0.1,0-0.2-0.1-0.2-0.2c0-0.1,0.1-0.2,0.2-0.2h1.2C7.9,11.9,8,12,8,12.1
			C8,12.2,7.9,12.3,7.8,12.3z"/>
		<path id="XMLID_29_" class="st4" d="M23.4,12.3h-1.2c-0.1,0-0.2-0.1-0.2-0.2c0-0.1,0.1-0.2,0.2-0.2h1.2c0.1,0,0.2,0.1,0.2,0.2
			C23.6,12.2,23.5,12.3,23.4,12.3z"/>
		<path id="XMLID_28_" class="st4" d="M4.6,14.2c-0.1,0-0.1,0-0.1-0.1c-0.1-0.1-0.1-0.2,0-0.3l1.8-1.6c0.1-0.1,0.2-0.1,0.3,0
			c0.1,0.1,0.1,0.2,0,0.3l-1.8,1.6C4.7,14.2,4.7,14.2,4.6,14.2z"/>
		<path id="XMLID_27_" class="st4" d="M4.6,25.5c-0.1,0-0.2-0.1-0.2-0.2V14.8c0-0.1,0.1-0.2,0.2-0.2c0.1,0,0.2,0.1,0.2,0.2v10.5
			C4.8,25.5,4.8,25.5,4.6,25.5z"/>
		<path id="XMLID_26_" class="st4" d="M25.4,14.2c0,0-0.1,0-0.1-0.1l-1.7-1.6c-0.1-0.1-0.1-0.2,0-0.3c0.1-0.1,0.2-0.1,0.3,0l1.7,1.6
			c0.1,0.1,0.1,0.2,0,0.3C25.5,14.2,25.4,14.2,25.4,14.2z"/>
		<path id="XMLID_25_" class="st4" d="M25.4,25.5c-0.1,0-0.2-0.1-0.2-0.2V14.8c0-0.1,0.1-0.2,0.2-0.2s0.2,0.1,0.2,0.2v10.5
			C25.5,25.5,25.5,25.5,25.4,25.5z"/>
		<path id="XMLID_24_" class="st4" d="M6.6,25.9H3.9c-0.1,0-0.2-0.1-0.2-0.2c0-0.1,0.1-0.2,0.2-0.2h2.7c0.1,0,0.2,0.1,0.2,0.2
			C6.8,25.9,6.7,25.9,6.6,25.9z"/>
		<path id="XMLID_23_" class="st4" d="M26.1,25.9h-2.7c-0.1,0-0.2-0.1-0.2-0.2c0-0.1,0.1-0.2,0.2-0.2h2.7c0.1,0,0.2,0.1,0.2,0.2
			C26.3,25.9,26.2,25.9,26.1,25.9z"/>
		<path id="XMLID_22_" class="st4" d="M23,27.5H7c-0.1,0-0.2-0.1-0.2-0.2c0-0.1,0.1-0.2,0.2-0.2h16c0.1,0,0.2,0.1,0.2,0.2
			C23.2,27.4,23.1,27.5,23,27.5z"/>
		<path class="st4" d="M16.4,27.5h-2.7c-0.1,0-0.2-0.1-0.2-0.2v-0.8c0-0.1,0.1-0.2,0.2-0.2h2.7c0.1,0,0.2,0.1,0.2,0.2v0.8
			C16.6,27.4,16.5,27.5,16.4,27.5z M13.8,27.1h2.3v-0.4h-2.3L13.8,27.1L13.8,27.1z"/>
		<path id="XMLID_19_" class="st4" d="M12.9,26.7H7c-0.1,0-0.2-0.1-0.2-0.2c0-0.1,0.1-0.2,0.2-0.2h5.9c0.1,0,0.2,0.1,0.2,0.2
			C13,26.6,13,26.7,12.9,26.7z"/>
		<path id="XMLID_18_" class="st4" d="M23,26.7h-5.9c-0.1,0-0.2-0.1-0.2-0.2c0-0.1,0.1-0.2,0.2-0.2H23c0.1,0,0.2,0.1,0.2,0.2
			C23.2,26.6,23.1,26.7,23,26.7z"/>
		<path id="XMLID_17_" class="st4" d="M23.4,25.2c-0.1,0-0.2-0.1-0.2-0.2V22H6.8V25c0,0.1-0.1,0.2-0.2,0.2c-0.1,0-0.2-0.1-0.2-0.2
			v-3.1c0-0.1,0.1-0.2,0.2-0.2h16.8c0.1,0,0.2,0.1,0.2,0.2V25C23.6,25.1,23.5,25.2,23.4,25.2z"/>
		<path id="XMLID_16_" class="st4" d="M7,26.7C7,26.7,6.9,26.7,7,26.7c-0.2-0.1-0.2-0.2-0.2-0.3l0.9-2.3C7.8,24,7.9,24,8,24
			c0.1,0,0.1,0.2,0.1,0.3l-0.9,2.3C7.1,26.7,7.1,26.7,7,26.7z"/>
		<path id="XMLID_15_" class="st4" d="M23,26.7c-0.1,0-0.2,0-0.2-0.1l-0.9-2.3c0-0.1,0-0.2,0.1-0.3c0.1,0,0.2,0,0.3,0.1l0.9,2.3
			C23.2,26.6,23.2,26.7,23,26.7C23.1,26.7,23,26.7,23,26.7z"/>
		<path id="XMLID_14_" class="st4" d="M23,24H7c-0.1,0-0.2-0.1-0.2-0.2c0-0.1,0.1-0.2,0.2-0.2h16c0.1,0,0.2,0.1,0.2,0.2
			C23.2,23.9,23.1,24,23,24z"/>
		<path id="XMLID_13_" class="st4" d="M15.6,23.2h-1.2c-0.1,0-0.2-0.1-0.2-0.2c0-0.1,0.1-0.2,0.2-0.2h1.2c0.1,0,0.2,0.1,0.2,0.2
			C15.8,23.1,15.7,23.2,15.6,23.2z"/>
		<path id="XMLID_12_" class="st4" d="M8.6,13c-0.1,0-0.2-0.1-0.2-0.2V2.7c0-0.1,0.1-0.2,0.2-0.2s0.2,0.1,0.2,0.2v10.2
			C8.8,13,8.7,13,8.6,13z"/>
		<path id="XMLID_11_" class="st4" d="M21.4,13c-0.1,0-0.2-0.1-0.2-0.2V5.4c0-0.1,0.1-0.2,0.2-0.2c0.1,0,0.2,0.1,0.2,0.2v7.4
			C21.6,13,21.6,13,21.4,13z"/>
		<path id="XMLID_10_" class="st4" d="M18.7,2.9L18.7,2.9l-10.2,0c-0.1,0-0.2-0.1-0.2-0.2c0-0.1,0.1-0.2,0.2-0.2l0,0l10.2,0
			c0.1,0,0.2,0.1,0.2,0.2S18.8,2.9,18.7,2.9z"/>
		<path id="XMLID_9_" class="st4" d="M7.4,13.8C7.4,13.8,7.3,13.8,7.4,13.8c-0.2-0.1-0.2-0.2-0.2-0.3l0.4-0.8c0-0.1,0.2-0.1,0.3-0.1
			c0.1,0,0.1,0.2,0.1,0.3l-0.4,0.8C7.5,13.8,7.5,13.8,7.4,13.8z"/>
		<path id="XMLID_8_" class="st4" d="M22.6,13.8H7.4c-0.1,0-0.2-0.1-0.2-0.2c0-0.1,0.1-0.2,0.2-0.2h15.2c0.1,0,0.2,0.1,0.2,0.2
			C22.8,13.7,22.7,13.8,22.6,13.8z"/>
		<path id="XMLID_7_" class="st4" d="M22.6,13.8c-0.1,0-0.1,0-0.2-0.1l-0.4-0.8c0-0.1,0-0.2,0.1-0.3c0.1,0,0.2,0,0.3,0.1l0.4,0.8
			C22.8,13.6,22.8,13.8,22.6,13.8C22.7,13.8,22.6,13.8,22.6,13.8z"/>
		<path id="XMLID_6_" class="st4" d="M18.7,5.6c-0.1,0-0.2-0.1-0.2-0.2v-2c0-0.1,0.1-0.2,0.2-0.2c0.1,0,0.2,0.1,0.2,0.2v2
			C18.9,5.5,18.8,5.6,18.7,5.6z"/>
		<path id="XMLID_5_" class="st4" d="M20.7,5.6h-2c-0.1,0-0.2-0.1-0.2-0.2c0-0.1,0.1-0.2,0.2-0.2h2c0.1,0,0.2,0.1,0.2,0.2
			C20.9,5.5,20.8,5.6,20.7,5.6z"/>
		<path id="XMLID_4_" class="st4" d="M21.4,5.6c0,0-0.1,0-0.1-0.1l-2.7-2.7c-0.1-0.1-0.1-0.2,0-0.3c0.1-0.1,0.2-0.1,0.3,0l2.7,2.7
			c0.1,0.1,0.1,0.2,0,0.3C21.5,5.6,21.5,5.6,21.4,5.6z"/>
		<path id="XMLID_3_" class="st4" d="M19.9,8h-9.8C10,8,9.9,7.9,9.9,7.8c0-0.1,0.1-0.2,0.2-0.2h9.8c0.1,0,0.2,0.1,0.2,0.2
			C20.1,7.9,20,8,19.9,8z"/>
		<path id="XMLID_2_" class="st4" d="M19.9,9.5h-9.8c-0.1,0-0.2-0.1-0.2-0.2c0-0.1,0.1-0.2,0.2-0.2h9.8c0.1,0,0.2,0.1,0.2,0.2
			C20.1,9.4,20,9.5,19.9,9.5z"/>
		<path id="XMLID_1_" class="st4" d="M19.9,11.1h-9.8c-0.1,0-0.2-0.1-0.2-0.2s0.1-0.2,0.2-0.2h9.8c0.1,0,0.2,0.1,0.2,0.2
			S20,11.1,19.9,11.1z"/>
	</g>
</g>
</svg>
