<svg xmlns="http://www.w3.org/2000/svg" viewBox="0 0 60 60"><defs><style>.cls-1{fill:#1565c0;}.cls-2{fill:#fff;}</style></defs><g id="Layer_2" data-name="Layer 2"><g id="Layer_1-2" data-name="Layer 1"><rect class="cls-1" width="60" height="60"/><path class="cls-2" d="M33.23,8.82a.87.87,0,0,0-.76-.19L9.3,14.21a.94.94,0,0,0-.69.92V46.74a.92.92,0,0,0,.76.92l23.17,3.72a.9.9,0,0,0,1-.78.66.66,0,0,0,0-.14V9.55A.93.93,0,0,0,33.23,8.82Z"/><path class="cls-2" d="M50.5,47.67H32.67a.93.93,0,0,1,0-1.86H49.61V14.2H32.67a.93.93,0,0,1,0-1.86H50.5a.91.91,0,0,1,.89.93V46.74A.91.91,0,0,1,50.5,47.67Z"/><path class="cls-1" d="M23.76,38.37a.88.88,0,0,1-.85-.67L20.2,27.81,17.49,37.7a.91.91,0,0,1-1.71,0l-3.57-13a.94.94,0,0,1,.58-1.17.89.89,0,0,1,1.12.61s0,0,0,.05l2.71,9.89,2.71-9.89a.91.91,0,0,1,1.71,0l2.71,9.89,2.71-9.89a.87.87,0,0,1,1.08-.64h0a.93.93,0,0,1,.61,1.15l-3.56,13A.89.89,0,0,1,23.76,38.37Z"/><path class="cls-2" d="M46.93,19.78H32.67a.93.93,0,0,1,0-1.86H46.93a.93.93,0,0,1,0,1.86Z"/><path class="cls-2" d="M46.93,25.36H32.67a.93.93,0,0,1,0-1.86H46.93a.93.93,0,0,1,0,1.86Z"/><path class="cls-2" d="M46.93,30.93H32.67a.93.93,0,0,1,0-1.86H46.93a.93.93,0,0,1,0,1.86Z"/><path class="cls-2" d="M46.93,36.51H32.67a.93.93,0,0,1,0-1.86H46.93a.93.93,0,0,1,0,1.86Z"/><path class="cls-2" d="M46.93,42.09H32.67a.93.93,0,0,1,0-1.86H46.93a.93.93,0,0,1,0,1.86Z"/></g></g></svg>