<svg xmlns="http://www.w3.org/2000/svg" viewBox="0 0 735 700"><defs><style>.cls-1,.cls-3{fill:#1565c0;}.cls-2{fill:#fff;}.cls-3{font-size:50px;font-family:BalooDa2-SemiBold, "Baloo Da 2";font-weight:600;}</style></defs><g id="Layer_2" data-name="Layer 2"><g id="Layer_1-2" data-name="Layer 1"><rect class="cls-1" width="735" height="700"/><path class="cls-2" d="M373.41,312.83a1.6,1.6,0,0,0-1.38-.33l-42.43,9.79a1.64,1.64,0,0,0-1.27,1.61v55.48a1.63,1.63,0,0,0,1.39,1.61l42.43,6.53a1.63,1.63,0,0,0,1.86-1.36,2.29,2.29,0,0,0,0-.25V314.1A1.63,1.63,0,0,0,373.41,312.83Z"/><path class="cls-2" d="M405,381H372.4a1.63,1.63,0,1,1,0-3.26h31V322.26h-31a1.63,1.63,0,1,1,0-3.26H405a1.63,1.63,0,0,1,1.64,1.63v58.75A1.63,1.63,0,0,1,405,381Z"/><path class="cls-2" d="M398.51,332.06H372.4a1.64,1.64,0,1,1,0-3.27h26.11a1.64,1.64,0,0,1,0,3.27Z"/><path class="cls-2" d="M398.51,341.85H372.4a1.64,1.64,0,1,1,0-3.27h26.11a1.64,1.64,0,0,1,0,3.27Z"/><path class="cls-2" d="M398.51,351.64H372.4a1.64,1.64,0,1,1,0-3.27h26.11a1.64,1.64,0,0,1,0,3.27Z"/><path class="cls-2" d="M398.51,361.43H372.4a1.63,1.63,0,1,1,0-3.26h26.11a1.63,1.63,0,0,1,0,3.26Z"/><path class="cls-2" d="M398.51,371.22H372.4a1.63,1.63,0,1,1,0-3.26h26.11a1.63,1.63,0,1,1,0,3.26Z"/><text class="cls-3" transform="translate(333.32 365.33)">D</text></g></g></svg>