<svg xmlns="http://www.w3.org/2000/svg" viewBox="0 0 60 60"><defs><style>.cls-1,.cls-3{fill:#79554a;}.cls-2{fill:#fff;}.cls-3{font-size:26.06px;font-family:BalooDa2-SemiBold, "Baloo Da 2";font-weight:600;}</style></defs><g id="Layer_2" data-name="Layer 2"><g id="Layer_1-2" data-name="Layer 1"><rect class="cls-1" width="60" height="60"/><path class="cls-2" d="M33.23,8.8a1,1,0,0,0-.76-.17L9.3,13.74a.86.86,0,0,0-.69.83V43.49a.86.86,0,0,0,.76.84l23.17,3.4a.87.87,0,0,0,1-.71.53.53,0,0,0,0-.13V9.47A.83.83,0,0,0,33.23,8.8Z"/><path class="cls-2" d="M50.5,44.34H32.67a.85.85,0,1,1,0-1.7H49.61V13.72H32.67a.85.85,0,1,1,0-1.7H50.5a.87.87,0,0,1,.89.85V43.49A.87.87,0,0,1,50.5,44.34Z"/><path class="cls-2" d="M46.93,18.83H32.67a.86.86,0,1,1,0-1.71H46.93a.86.86,0,1,1,0,1.71Z"/><path class="cls-2" d="M46.93,23.93H32.67a.85.85,0,1,1,0-1.7H46.93a.85.85,0,1,1,0,1.7Z"/><path class="cls-2" d="M46.93,29H32.67a.85.85,0,1,1,0-1.7H46.93a.85.85,0,1,1,0,1.7Z"/><path class="cls-2" d="M46.93,34.14H32.67a.86.86,0,1,1,0-1.71H46.93a.86.86,0,1,1,0,1.71Z"/><path class="cls-2" d="M46.93,39.24H32.67a.85.85,0,1,1,0-1.7H46.93a.85.85,0,1,1,0,1.7Z"/><text class="cls-3" transform="translate(13.52 36.17) scale(1.05 1)">T</text></g></g></svg>