<svg xmlns="http://www.w3.org/2000/svg" viewBox="0 0 60 60"><defs><style>.cls-1,.cls-3{fill:#ffc107;}.cls-2{fill:#fff;}.cls-3{font-size:23.64px;font-family:BalooDa2-SemiBold, "Baloo Da 2";font-weight:600;}</style></defs><g id="Layer_2" data-name="Layer 2"><g id="Layer_1-2" data-name="Layer 1"><rect class="cls-1" width="60" height="60"/><path class="cls-2" d="M33.23,8.81a.93.93,0,0,0-.76-.18L9.3,13.91a.89.89,0,0,0-.69.86V44.64a.88.88,0,0,0,.76.87L32.54,49a.89.89,0,0,0,1-.74.57.57,0,0,0,0-.13V9.5A.85.85,0,0,0,33.23,8.81Z"/><path class="cls-2" d="M50.5,45.52H32.67a.88.88,0,1,1,0-1.76H49.61V13.89H32.67a.88.88,0,1,1,0-1.76H50.5a.89.89,0,0,1,.89.88V44.64A.88.88,0,0,1,50.5,45.52Z"/><path class="cls-2" d="M39,34.24a.86.86,0,0,1-.65-1l1.75-7.49a.87.87,0,0,1,1.05-.65.85.85,0,0,1,.66,1L40,33.59a.88.88,0,0,1-1.06.65Z"/><path class="cls-2" d="M43.83,33.11a.87.87,0,0,1-.65-.29.85.85,0,0,1,.06-1.22l2.2-2-2.2-1.95a.86.86,0,0,1-.06-1.23.89.89,0,0,1,1.24-.06L47.34,29a.86.86,0,0,1,.29.65.84.84,0,0,1-.29.64l-2.92,2.6a.88.88,0,0,1-.59.22Z"/><path class="cls-2" d="M36.23,33.11a.88.88,0,0,1-.59-.22l-2.93-2.6a.87.87,0,0,1-.29-.64.89.89,0,0,1,.29-.65l2.93-2.59a.89.89,0,0,1,1.24.06.87.87,0,0,1-.07,1.23l-2.2,1.95,2.2,2a.86.86,0,0,1,.07,1.22.89.89,0,0,1-.65.29Z"/><text class="cls-3" transform="translate(12.99 37.58) scale(1.01 1)">H</text></g></g></svg>