<svg xmlns="http://www.w3.org/2000/svg" viewBox="0 0 60 60"><defs><style>.cls-1{fill:#2e7d32;}.cls-2{fill:#fff;}</style></defs><g id="Layer_2" data-name="Layer 2"><g id="Layer_1-2" data-name="Layer 1"><rect class="cls-1" width="60" height="60"/><path class="cls-2" d="M33.23,9.7a.9.9,0,0,0-.76-.18L9.3,14.87a.9.9,0,0,0-.69.88V46a.88.88,0,0,0,.76.88l23.17,3.57a.89.89,0,0,0,1-.75.57.57,0,0,0,0-.13V10.4A.87.87,0,0,0,33.23,9.7Z"/><path class="cls-2" d="M50.5,46.94H32.67a.9.9,0,0,1,0-1.79H49.61V14.85H32.67a.89.89,0,0,1,0-1.78H50.5a.89.89,0,0,1,.89.89V46A.89.89,0,0,1,50.5,46.94Z"/><path class="cls-2" d="M39.28,20.2H32.22c-.24,0-.44-.4-.44-.89s.2-.89.44-.89h7.06c.25,0,.44.4.44.89S39.53,20.2,39.28,20.2Z"/><path class="cls-2" d="M39.28,25.55H32.22c-.24,0-.44-.4-.44-.89s.2-.89.44-.89h7.06c.25,0,.44.39.44.89S39.53,25.55,39.28,25.55Z"/><path class="cls-2" d="M39.28,30.89H32.22c-.24,0-.44-.39-.44-.89s.2-.89.44-.89h7.06c.25,0,.44.4.44.89S39.53,30.89,39.28,30.89Z"/><path class="cls-2" d="M39.28,36.24H32.22c-.24,0-.44-.4-.44-.89s.2-.89.44-.89h7.06c.25,0,.44.4.44.89S39.53,36.24,39.28,36.24Z"/><path class="cls-2" d="M39.28,41.59H32.22c-.24,0-.44-.4-.44-.89s.2-.89.44-.89h7.06c.25,0,.44.4.44.89S39.53,41.59,39.28,41.59Z"/><path class="cls-2" d="M48.25,20.2H42.71c-.19,0-.35-.4-.35-.89s.16-.89.35-.89h5.54c.19,0,.35.4.35.89S48.44,20.2,48.25,20.2Z"/><path class="cls-2" d="M48.25,25.55H42.71c-.19,0-.35-.4-.35-.89s.16-.89.35-.89h5.54c.19,0,.35.39.35.89S48.44,25.55,48.25,25.55Z"/><path class="cls-2" d="M48.25,30.89H42.71c-.19,0-.35-.39-.35-.89s.16-.89.35-.89h5.54c.19,0,.35.4.35.89S48.44,30.89,48.25,30.89Z"/><path class="cls-2" d="M48.25,36.24H42.71c-.19,0-.35-.4-.35-.89s.16-.89.35-.89h5.54c.19,0,.35.4.35.89S48.44,36.24,48.25,36.24Z"/><path class="cls-2" d="M48.25,41.59H42.71c-.19,0-.35-.4-.35-.89s.16-.89.35-.89h5.54c.19,0,.35.4.35.89S48.44,41.59,48.25,41.59Z"/><path class="cls-1" d="M26.68,35.17l-4.22-4.83,4.27-5.5a1.34,1.34,0,1,0-2.11-1.64l-4,5.09-3.33-3.82a1.34,1.34,0,0,0-2,1.76L19,30.44l-3.72,4.79a1.33,1.33,0,0,0,1.05,2.15,1.34,1.34,0,0,0,1.06-.51l3.41-4.39,3.88,4.44a1.33,1.33,0,0,0,1,.46,1.36,1.36,0,0,0,.88-.33A1.33,1.33,0,0,0,26.68,35.17Z"/></g></g></svg>