<svg xmlns="http://www.w3.org/2000/svg" viewBox="0 0 735 700"><defs><style>.cls-1,.cls-3{fill:#546d79;}.cls-2{fill:#fff;}.cls-3{font-size:43.91px;font-family:BalooDa2-SemiBold, "Baloo Da 2";font-weight:600;}</style></defs><g id="Layer_2" data-name="Layer 2"><g id="Layer_1-2" data-name="Layer 1"><rect class="cls-1" width="735" height="700"/><path class="cls-2" d="M373.41,310.76a1.66,1.66,0,0,0-1.38-.33l-42.43,9.8a1.64,1.64,0,0,0-1.27,1.6v55.49a1.63,1.63,0,0,0,1.39,1.61l42.43,6.53a1.64,1.64,0,0,0,1.86-1.37,2,2,0,0,0,0-.25V312A1.64,1.64,0,0,0,373.41,310.76Z"/><path class="cls-2" d="M405,379H372.4a1.64,1.64,0,1,1,0-3.27h31V320.2h-31a1.63,1.63,0,1,1,0-3.26H405a1.63,1.63,0,0,1,1.64,1.63v58.75A1.63,1.63,0,0,1,405,379Z"/><path class="cls-2" d="M398.51,330H372.4a1.63,1.63,0,1,1,0-3.26h26.11a1.63,1.63,0,0,1,0,3.26Z"/><path class="cls-2" d="M398.51,339.78H372.4a1.63,1.63,0,1,1,0-3.26h26.11a1.63,1.63,0,0,1,0,3.26Z"/><path class="cls-2" d="M398.51,349.57H372.4a1.63,1.63,0,1,1,0-3.26h26.11a1.63,1.63,0,0,1,0,3.26Z"/><path class="cls-2" d="M398.51,359.37H372.4a1.64,1.64,0,1,1,0-3.27h26.11a1.64,1.64,0,0,1,0,3.27Z"/><path class="cls-2" d="M398.51,369.16H372.4a1.64,1.64,0,1,1,0-3.27h26.11a1.64,1.64,0,0,1,0,3.27Z"/><text class="cls-3" transform="translate(341.81 363.96)">?</text></g></g></svg>