<svg xmlns="http://www.w3.org/2000/svg" viewBox="0 0 735 700"><defs><style>.cls-1,.cls-3{fill:#ffc107;}.cls-2{fill:#fff;}.cls-3{font-size:43.91px;font-family:BalooDa2-SemiBold, "Baloo Da 2";font-weight:600;}</style></defs><g id="Layer_2" data-name="Layer 2"><g id="Layer_1-2" data-name="Layer 1"><rect class="cls-1" width="735" height="700"/><path class="cls-2" d="M373.41,310.64a1.66,1.66,0,0,0-1.38-.33l-42.43,9.8a1.63,1.63,0,0,0-1.27,1.6V377.2a1.63,1.63,0,0,0,1.39,1.61l42.43,6.53A1.64,1.64,0,0,0,374,384a2,2,0,0,0,0-.25v-71.8A1.64,1.64,0,0,0,373.41,310.64Z"/><path class="cls-2" d="M405,378.83H372.4a1.64,1.64,0,1,1,0-3.27h31V320.08h-31a1.63,1.63,0,1,1,0-3.26H405a1.63,1.63,0,0,1,1.64,1.63V377.2A1.63,1.63,0,0,1,405,378.83Z"/><path class="cls-2" d="M383.9,357.87a1.6,1.6,0,0,1-1.21-1.92L385.91,342a1.61,1.61,0,0,1,3.13.72l-3.22,13.93a1.6,1.6,0,0,1-1.92,1.2Z"/><path class="cls-2" d="M392.83,355.77a1.61,1.61,0,0,1-1.08-2.8l4-3.62-4-3.63a1.61,1.61,0,1,1,2.15-2.39l5.36,4.82a1.61,1.61,0,0,1,0,2.39l-5.36,4.82a1.58,1.58,0,0,1-1.07.41Z"/><path class="cls-2" d="M378.9,355.77a1.56,1.56,0,0,1-1.07-.41l-5.36-4.82a1.61,1.61,0,0,1,0-2.39l5.36-4.82a1.61,1.61,0,1,1,2.15,2.39l-4,3.63,4,3.62a1.61,1.61,0,0,1-1.08,2.8Z"/><text class="cls-3" transform="translate(336.34 364.08)">H</text></g></g></svg>