<svg xmlns="http://www.w3.org/2000/svg" viewBox="0 0 735 700"><defs><style>.cls-1{fill:#e24b2a;}.cls-2{fill:#fff;}</style></defs><g id="Layer_2" data-name="Layer 2"><g id="Layer_1-2" data-name="Layer 1"><rect class="cls-1" width="735" height="700"/><path class="cls-2" d="M373.41,312.83a1.6,1.6,0,0,0-1.38-.33l-42.43,9.79a1.64,1.64,0,0,0-1.27,1.61v55.48a1.63,1.63,0,0,0,1.39,1.61l42.43,6.53a1.63,1.63,0,0,0,1.86-1.36,2.29,2.29,0,0,0,0-.25V314.1A1.63,1.63,0,0,0,373.41,312.83Z"/><path class="cls-2" d="M405,381H372.4a1.63,1.63,0,1,1,0-3.26h31V322.26h-31a1.63,1.63,0,1,1,0-3.26H405a1.63,1.63,0,0,1,1.64,1.63v58.75A1.63,1.63,0,0,1,405,381Z"/><path class="cls-1" d="M343.73,368a2.45,2.45,0,0,1-2.45-2.45V341.08a2.45,2.45,0,0,1,2.45-2.45h7.35a9.79,9.79,0,1,1,0,19.58h-4.9v7.35A2.45,2.45,0,0,1,343.73,368Zm2.45-14.69h4.9a4.9,4.9,0,0,0,0-9.79h-4.9Z"/><path class="cls-2" d="M394.11,367.88H369.64a2.45,2.45,0,1,1,0-4.89h24.47a2.45,2.45,0,1,1,0,4.89Z"/><path class="cls-2" d="M381.87,333.61a12.24,12.24,0,1,0,12.24,12.24H381.87Z"/><path class="cls-2" d="M386.77,328.72V341H399A12.24,12.24,0,0,0,386.77,328.72Z"/></g></g></svg>