<svg xmlns="http://www.w3.org/2000/svg" viewBox="0 0 735 700"><defs><style>.cls-1{fill:#2e7d32;}.cls-2{fill:#fff;}</style></defs><g id="Layer_2" data-name="Layer 2"><g id="Layer_1-2" data-name="Layer 1"><rect class="cls-1" width="735" height="700"/><path class="cls-2" d="M373.41,312.83a1.6,1.6,0,0,0-1.38-.33l-42.43,9.79a1.64,1.64,0,0,0-1.27,1.61v55.48a1.63,1.63,0,0,0,1.39,1.61l42.43,6.53a1.63,1.63,0,0,0,1.86-1.36,2.29,2.29,0,0,0,0-.25V314.1A1.63,1.63,0,0,0,373.41,312.83Z"/><path class="cls-2" d="M405,381H372.4a1.63,1.63,0,1,1,0-3.26h31V322.26h-31a1.63,1.63,0,1,1,0-3.26H405a1.63,1.63,0,0,1,1.64,1.63v58.75A1.63,1.63,0,0,1,405,381Z"/><path class="cls-2" d="M384.5,332.06H371.57c-.44,0-.81-.74-.81-1.64s.37-1.63.81-1.63H384.5c.45,0,.81.73.81,1.63S385,332.06,384.5,332.06Z"/><path class="cls-2" d="M384.5,341.85H371.57c-.44,0-.81-.73-.81-1.63s.37-1.64.81-1.64H384.5c.45,0,.81.73.81,1.64S385,341.85,384.5,341.85Z"/><path class="cls-2" d="M384.5,351.64H371.57c-.44,0-.81-.73-.81-1.63s.37-1.64.81-1.64H384.5c.45,0,.81.74.81,1.64S385,351.64,384.5,351.64Z"/><path class="cls-2" d="M384.5,361.43H371.57c-.44,0-.81-.73-.81-1.63s.37-1.63.81-1.63H384.5c.45,0,.81.73.81,1.63S385,361.43,384.5,361.43Z"/><path class="cls-2" d="M384.5,371.22H371.57c-.44,0-.81-.73-.81-1.63s.37-1.63.81-1.63H384.5c.45,0,.81.73.81,1.63S385,371.22,384.5,371.22Z"/><path class="cls-2" d="M400.92,332.06H390.77c-.35,0-.63-.74-.63-1.64s.28-1.63.63-1.63h10.15c.35,0,.63.73.63,1.63S401.27,332.06,400.92,332.06Z"/><path class="cls-2" d="M400.92,341.85H390.77c-.35,0-.63-.73-.63-1.63s.28-1.64.63-1.64h10.15c.35,0,.63.73.63,1.64S401.27,341.85,400.92,341.85Z"/><path class="cls-2" d="M400.92,351.64H390.77c-.35,0-.63-.73-.63-1.63s.28-1.64.63-1.64h10.15c.35,0,.63.74.63,1.64S401.27,351.64,400.92,351.64Z"/><path class="cls-2" d="M400.92,361.43H390.77c-.35,0-.63-.73-.63-1.63s.28-1.63.63-1.63h10.15c.35,0,.63.73.63,1.63S401.27,361.43,400.92,361.43Z"/><path class="cls-2" d="M400.92,371.22H390.77c-.35,0-.63-.73-.63-1.63s.28-1.63.63-1.63h10.15c.35,0,.63.73.63,1.63S401.27,371.22,400.92,371.22Z"/><path class="cls-1" d="M361.43,359.46l-7.74-8.84,7.83-10.07a2.45,2.45,0,0,0-3.87-3l-7.25,9.32-6.11-7a2.44,2.44,0,0,0-3.68,3.22l6.73,7.7-6.82,8.77a2.46,2.46,0,0,0,.42,3.44,2.52,2.52,0,0,0,1.51.51,2.46,2.46,0,0,0,1.94-.94l6.24-8,7.12,8.13a2.41,2.41,0,0,0,1.84.84,2.45,2.45,0,0,0,1.84-4.06Z"/></g></g></svg>