<svg xmlns="http://www.w3.org/2000/svg" viewBox="0 0 60 60"><defs><style>.cls-1,.cls-3{fill:#546d79;}.cls-2{fill:#fff;}.cls-3{font-size:23.71px;font-family:BalooDa2-SemiBold, "Baloo Da 2";font-weight:600;}</style></defs><g id="Layer_2" data-name="Layer 2"><g id="Layer_1-2" data-name="Layer 1"><rect class="cls-1" width="60" height="60"/><path class="cls-2" d="M33.23,8.81a.9.9,0,0,0-.76-.18L9.3,13.92a.89.89,0,0,0-.69.87v30a.87.87,0,0,0,.76.87l23.17,3.53a.89.89,0,0,0,1-.74.57.57,0,0,0,0-.13V9.5A.85.85,0,0,0,33.23,8.81Z"/><path class="cls-2" d="M50.5,45.63H32.67a.88.88,0,1,1,0-1.76H49.61v-30H32.67a.89.89,0,1,1,0-1.77H50.5a.89.89,0,0,1,.89.89V44.75A.88.88,0,0,1,50.5,45.63Z"/><path class="cls-2" d="M46.93,19.19H32.67a.88.88,0,1,1,0-1.76H46.93a.88.88,0,1,1,0,1.76Z"/><path class="cls-2" d="M46.93,24.48H32.67a.88.88,0,1,1,0-1.76H46.93a.88.88,0,1,1,0,1.76Z"/><path class="cls-2" d="M46.93,29.77H32.67a.88.88,0,1,1,0-1.76H46.93a.88.88,0,1,1,0,1.76Z"/><path class="cls-2" d="M46.93,35.06H32.67a.88.88,0,1,1,0-1.76H46.93a.88.88,0,1,1,0,1.76Z"/><path class="cls-2" d="M46.93,40.35H32.67a.89.89,0,1,1,0-1.77H46.93a.89.89,0,1,1,0,1.77Z"/><text class="cls-3" transform="translate(15.97 37.54) scale(1.01 1)">?</text></g></g></svg>