<svg xmlns="http://www.w3.org/2000/svg" viewBox="0 0 60 60"><defs><style>.cls-1{fill:#e24b2a;}.cls-2{fill:#fff;}</style></defs><g id="Layer_2" data-name="Layer 2"><g id="Layer_1-2" data-name="Layer 1"><rect class="cls-1" width="60" height="60"/><path class="cls-2" d="M33.23,8.82a.87.87,0,0,0-.76-.19L9.3,14.21a.94.94,0,0,0-.69.92V46.74a.92.92,0,0,0,.76.92l23.17,3.72a.9.9,0,0,0,1-.78.66.66,0,0,0,0-.14V9.55A.93.93,0,0,0,33.23,8.82Z"/><path class="cls-2" d="M50.5,47.67H32.67a.93.93,0,0,1,0-1.86H49.61V14.2H32.67a.93.93,0,0,1,0-1.86H50.5a.91.91,0,0,1,.89.93V46.74A.91.91,0,0,1,50.5,47.67Z"/><path class="cls-1" d="M17,40.26a1.37,1.37,0,0,1-1.34-1.4V24.92A1.37,1.37,0,0,1,17,23.52h4a5.58,5.58,0,0,1,0,11.16H18.36v4.18A1.37,1.37,0,0,1,17,40.26Zm1.34-8.37H21a2.79,2.79,0,0,0,0-5.58H18.36Z"/><path class="cls-2" d="M44.53,40.19H31.17a1.4,1.4,0,0,1,0-2.79H44.53a1.4,1.4,0,0,1,0,2.79Z"/><path class="cls-2" d="M37.85,20.66a6.84,6.84,0,0,0-6.68,7,6.69,6.69,0,1,0,13.36,0H37.85Z"/><path class="cls-2" d="M40.52,17.88v7h6.69A6.83,6.83,0,0,0,40.52,17.88Z"/></g></g></svg>