<svg xmlns="http://www.w3.org/2000/svg" viewBox="0 0 735 700"><defs><style>.cls-1,.cls-3{fill:#79554a;}.cls-2{fill:#fff;}.cls-3{font-size:50px;font-family:BalooDa2-SemiBold, "Baloo Da 2";font-weight:600;}</style></defs><g id="Layer_2" data-name="Layer 2"><g id="Layer_1-2" data-name="Layer 1"><rect class="cls-1" width="735" height="700"/><path class="cls-2" d="M373.41,309.33A1.6,1.6,0,0,0,372,309l-42.43,9.79a1.65,1.65,0,0,0-1.27,1.61v55.49a1.63,1.63,0,0,0,1.39,1.61L372.15,384a1.64,1.64,0,0,0,1.86-1.37,2,2,0,0,0,0-.25v-71.8A1.64,1.64,0,0,0,373.41,309.33Z"/><path class="cls-2" d="M405,377.52H372.4a1.64,1.64,0,1,1,0-3.27h31V318.77h-31a1.64,1.64,0,1,1,0-3.27H405a1.64,1.64,0,0,1,1.64,1.64v58.75A1.63,1.63,0,0,1,405,377.52Z"/><path class="cls-2" d="M398.51,328.56H372.4a1.63,1.63,0,1,1,0-3.26h26.11a1.63,1.63,0,0,1,0,3.26Z"/><path class="cls-2" d="M398.51,338.35H372.4a1.63,1.63,0,1,1,0-3.26h26.11a1.63,1.63,0,0,1,0,3.26Z"/><path class="cls-2" d="M398.51,348.14H372.4a1.63,1.63,0,1,1,0-3.26h26.11a1.63,1.63,0,0,1,0,3.26Z"/><path class="cls-2" d="M398.51,357.93H372.4a1.63,1.63,0,1,1,0-3.26h26.11a1.63,1.63,0,0,1,0,3.26Z"/><path class="cls-2" d="M398.51,367.73H372.4a1.64,1.64,0,1,1,0-3.27h26.11a1.64,1.64,0,0,1,0,3.27Z"/><text class="cls-3" transform="translate(337.32 361.84)">T</text></g></g></svg>