<?xml version="1.0" encoding="utf-8"?>
<!-- Generator: Adobe Illustrator 24.1.2, SVG Export Plug-In . SVG Version: 6.00 Build 0)  -->
<svg version="1.1" id="Camada_1" xmlns="http://www.w3.org/2000/svg" xmlns:xlink="http://www.w3.org/1999/xlink" x="0px" y="0px"
	 viewBox="0 0 25 25" style="enable-background:new 0 0 25 25;" xml:space="preserve">
<style type="text/css">
	.st0{fill:#E24C4B;}
	.st1{fill:#D1403F;}
	.st2{fill:#FFFFFF;}
</style>
<g>
	<circle class="st0" cx="12.71" cy="12.6" r="11.5"/>
	<path class="st1" d="M24.21,12.6c0,6.33-5.17,11.5-11.5,11.5c-3.67,0-6.9-1.65-8.98-4.31c1.94,1.58,4.46,2.52,7.19,2.52
		c6.33,0,11.5-5.17,11.5-11.5c0-2.73-0.93-5.25-2.52-7.19C22.55,5.7,24.21,8.93,24.21,12.6z"/>
	<path class="st2" d="M17.95,17.84c-0.43,0.43-1.15,0.43-1.58,0l-3.67-3.67l-3.67,3.67c-0.43,0.43-1.15,0.43-1.58,0
		c-0.43-0.43-0.43-1.15,0-1.58l3.67-3.67L7.46,8.93c-0.43-0.43-0.43-1.15,0-1.58c0.43-0.43,1.15-0.43,1.58,0l3.67,3.67l3.67-3.67
		c0.43-0.43,1.15-0.43,1.58,0c0.43,0.43,0.43,1.15,0,1.58l-3.67,3.67l3.67,3.67C18.38,16.69,18.38,17.41,17.95,17.84z"/>
</g>
</svg>
