<svg id="Capa_1" enable-background="new 0 0 512 512" height="512" viewBox="0 0 512 512" width="512" xmlns="http://www.w3.org/2000/svg"><g><g><g><g><path d="m140.032 454.802v33.131c0 9.15 7.417 16.568 16.567 16.568h314.766c9.15 0 16.567-7.418 16.567-16.568v-414.165c0-9.15-7.417-16.567-16.567-16.567h-33.133z" fill="#d3e2eb"/><path d="m90.332 438.233c0 9.15 7.418 16.568 16.568 16.568h314.766c9.15 0 16.568-7.418 16.568-16.568v-414.165c0-9.15-7.418-16.567-16.568-16.567h-314.766c-9.15 0-16.568 7.418-16.568 16.567z" fill="#ecf0f9"/><path d="m421.666 7.5h-23c9.15 0 16.567 7.417 16.567 16.567v414.165c0 9.15-7.418 16.568-16.567 16.568h23c9.15 0 16.567-7.418 16.567-16.568v-414.164c0-9.15-7.418-16.568-16.567-16.568z" fill="#d8e4f0"/><path d="m471.366 57.2h-23c9.15 0 16.568 7.417 16.568 16.567v414.165c0 9.15-7.418 16.568-16.568 16.568h23c9.15 0 16.568-7.418 16.568-16.568v-414.164c-.001-9.15-7.418-16.568-16.568-16.568z" fill="#b0c4d8"/></g><g fill="#4c9cd6"><path d="m297.7 73.767h-83.4c-4.418 0-8-3.582-8-8v-17.133c0-4.418 3.582-8 8-8h83.4c4.418 0 8 3.582 8 8v17.133c0 4.418-3.582 8-8 8z"/><path d="m363.966 405.1h-66.833c-4.418 0-8-3.582-8-8v-17.133c0-4.418 3.582-8 8-8h66.833c4.418 0 8 3.582 8 8v17.133c0 4.418-3.582 8-8 8z"/></g></g><g><circle cx="123.466" cy="371.967" fill="#ffe179" r="99.4"/><circle cx="123.466" cy="371.967" fill="#ffcb5b" r="66.267"/><path d="m123.466 272.567c-3.89 0-7.726.231-11.5.666 49.479 5.701 87.9 47.727 87.9 98.734s-38.421 93.033-87.9 98.734c3.774.435 7.61.666 11.5.666 54.897 0 99.4-44.503 99.4-99.4s-44.503-99.4-99.4-99.4z" fill="#fc6"/><path d="m123.466 305.7c-3.925 0-7.763.361-11.5 1.015 31.113 5.447 54.767 32.578 54.767 65.252 0 32.673-23.653 59.804-54.767 65.251 3.737.654 7.575 1.015 11.5 1.015 36.598 0 66.267-29.669 66.267-66.267 0-36.597-29.669-66.266-66.267-66.266z" fill="#ffb85b"/></g></g><g><path d="m123.467 346.334c4.999 0 9.066 4.067 9.066 9.066 0 4.142 3.358 7.5 7.5 7.5s7.5-3.358 7.5-7.5c0-10.651-6.958-19.704-16.566-22.863v-1.987c0-4.142-3.358-7.5-7.5-7.5s-7.5 3.358-7.5 7.5v1.987c-9.608 3.16-16.567 12.212-16.567 22.863 0 13.271 10.796 24.067 24.067 24.067 4.999 0 9.066 4.067 9.066 9.066 0 5-4.067 9.067-9.066 9.067s-9.067-4.067-9.067-9.067c0-4.142-3.358-7.5-7.5-7.5s-7.5 3.358-7.5 7.5c0 10.652 6.959 19.704 16.567 22.864v1.986c0 4.142 3.358 7.5 7.5 7.5s7.5-3.358 7.5-7.5v-1.986c9.608-3.16 16.566-12.212 16.566-22.864 0-13.27-10.796-24.066-24.066-24.066-4.999 0-9.067-4.067-9.067-9.067 0-4.999 4.067-9.066 9.067-9.066z"/><path d="m186.524 333.67c-2.152-3.537-6.767-4.661-10.306-2.508s-4.661 6.767-2.508 10.306c5.576 9.163 8.523 19.709 8.523 30.499 0 32.404-26.363 58.767-58.767 58.767s-58.766-26.363-58.766-58.767 26.363-58.767 58.767-58.767c11.026 0 21.77 3.069 31.07 8.874 3.514 2.194 8.14 1.124 10.333-2.39 2.194-3.514 1.124-8.14-2.39-10.334-11.685-7.295-25.176-11.151-39.014-11.151-40.675 0-73.767 33.092-73.767 73.767s33.092 73.767 73.767 73.767 73.767-33.092 73.767-73.767c0-13.54-3.703-26.783-10.709-38.296z"/><path d="m471.366 49.7h-25.633v-25.633c0-13.271-10.797-24.067-24.067-24.067h-314.766c-13.271 0-24.068 10.796-24.068 24.067v84.399c0 4.142 3.358 7.5 7.5 7.5s7.5-3.358 7.5-7.5v-84.399c0-5 4.068-9.067 9.068-9.067h314.766c5 0 9.067 4.067 9.067 9.067v414.165c0 5-4.067 9.067-9.067 9.067h-222.43c19.229-19.339 31.13-45.972 31.13-75.333 0-15.023-3.121-29.328-8.739-42.311.404.067.816.111 1.239.111h66.266c4.143 0 7.5-3.358 7.5-7.5s-3.357-7.5-7.5-7.5h-66.266c-2.904 0-5.417 1.654-6.663 4.068-18.465-32.104-53.118-53.767-92.736-53.767-8.834 0-17.418 1.085-25.634 3.114v-129.714c0-4.142-3.358-7.5-7.5-7.5s-7.5 3.358-7.5 7.5v134.631c-38.849 16.026-66.266 54.303-66.266 98.869 0 58.945 47.955 106.9 106.9 106.9 3.054 0 6.076-.136 9.066-.388v9.454c0 13.271 10.796 24.067 24.067 24.067h314.766c13.27 0 24.067-10.796 24.067-24.067v-414.166c0-13.271-10.797-24.067-24.067-24.067zm-439.799 322.267c0-50.674 41.226-91.9 91.9-91.9s91.9 41.226 91.9 91.9-41.226 91.9-91.9 91.9-91.9-41.226-91.9-91.9zm448.866 115.966c0 5-4.067 9.067-9.067 9.067h-314.766c-5 0-9.067-4.067-9.067-9.067v-11.798c11.888-2.745 23.02-7.483 33.033-13.834h241.1c13.27 0 24.067-10.796 24.067-24.067v-373.534h25.633c5 0 9.067 4.067 9.067 9.067z"/><path d="m297.7 33.133h-83.4c-8.547 0-15.5 6.953-15.5 15.5v17.133c0 8.547 6.953 15.5 15.5 15.5h83.4c8.547 0 15.5-6.953 15.5-15.5v-17.133c0-8.547-6.953-15.5-15.5-15.5zm.5 32.634c0 .276-.225.5-.5.5h-83.4c-.276 0-.5-.224-.5-.5v-17.134c0-.276.224-.5.5-.5h83.4c.275 0 .5.224.5.5z"/><path d="m363.967 364.467h-66.834c-8.547 0-15.5 6.953-15.5 15.5v17.133c0 8.547 6.953 15.5 15.5 15.5h66.834c8.547 0 15.5-6.953 15.5-15.5v-17.133c0-8.547-6.954-15.5-15.5-15.5zm.5 32.633c0 .276-.225.5-.5.5h-66.834c-.275 0-.5-.224-.5-.5v-17.133c0-.276.225-.5.5-.5h66.834c.275 0 .5.224.5.5z"/><path d="m371.967 115.967h-149.1c-4.142 0-7.5 3.358-7.5 7.5s3.358 7.5 7.5 7.5h149.1c4.143 0 7.5-3.358 7.5-7.5s-3.358-7.5-7.5-7.5z"/><path d="m164.6 164.1h17.133c8.547 0 15.5-6.953 15.5-15.5v-17.133c0-8.547-6.953-15.5-15.5-15.5h-17.133c-8.547 0-15.5 6.953-15.5 15.5v17.133c0 8.547 6.953 15.5 15.5 15.5zm-.5-32.633c0-.276.224-.5.5-.5h17.133c.276 0 .5.224.5.5v17.133c0 .276-.224.5-.5.5h-17.133c-.276 0-.5-.224-.5-.5z"/><path d="m222.866 164.1h66.266c4.143 0 7.5-3.358 7.5-7.5s-3.357-7.5-7.5-7.5h-66.266c-4.142 0-7.5 3.358-7.5 7.5s3.358 7.5 7.5 7.5z"/><path d="m371.967 198.8h-149.1c-4.142 0-7.5 3.358-7.5 7.5s3.358 7.5 7.5 7.5h149.1c4.143 0 7.5-3.358 7.5-7.5s-3.358-7.5-7.5-7.5z"/><path d="m149.1 231.433c0 8.547 6.953 15.5 15.5 15.5h17.133c8.547 0 15.5-6.953 15.5-15.5v-17.133c0-8.547-6.953-15.5-15.5-15.5h-17.133c-8.547 0-15.5 6.953-15.5 15.5zm15-17.133c0-.276.224-.5.5-.5h17.133c.276 0 .5.224.5.5v17.133c0 .276-.224.5-.5.5h-17.133c-.276 0-.5-.224-.5-.5z"/><path d="m222.866 246.933h66.266c4.143 0 7.5-3.358 7.5-7.5s-3.357-7.5-7.5-7.5h-66.266c-4.142 0-7.5 3.358-7.5 7.5s3.358 7.5 7.5 7.5z"/><path d="m371.967 281.633h-149.1c-4.142 0-7.5 3.358-7.5 7.5s3.358 7.5 7.5 7.5h149.1c4.143 0 7.5-3.358 7.5-7.5s-3.358-7.5-7.5-7.5z"/></g></g></svg>