<?xml version="1.0" encoding="utf-8"?>
<!-- Generator: Adobe Illustrator 19.0.0, SVG Export Plug-In . SVG Version: 6.00 Build 0)  -->
<svg version="1.1" id="Layer_1" xmlns="http://www.w3.org/2000/svg" xmlns:xlink="http://www.w3.org/1999/xlink" x="0px" y="0px"
	 viewBox="-288 379 35 35" style="enable-background:new -288 379 35 35;" xml:space="preserve">
<style type="text/css">
	.st0{fill:none;stroke:#505050;stroke-width:0.6;stroke-miterlimit:10;}
	.st1{fill:#CC092F;}
</style>
<rect x="-488.3" y="354.7" class="st0" width="0.8" height="0.3"/>
<g>
	<g>
		<g>
			<path class="st1" d="M-259.7,392.2c0.2-0.3,0.2-0.6,0.2-1c0-0.9-0.5-1.6-1.2-2c0.2-0.5,0.3-1,0.2-1.5c-0.2-1-1.2-1.7-2.3-1.7
				h-9.2c-0.7,0-1.8,0.2-2.6,0.7c-0.3-1-1.3-1.7-2.4-1.7h-3c-1.4,0-2.5,1.1-2.5,2.5v8c0,1.4,1.1,2.5,2.5,2.5h5
				c0.3,0,0.5-0.2,0.5-0.5v-0.2l0.1,0.1l2.9,6.2v3.4c0,0.2,0.1,0.3,0.2,0.4c0,0,0.8,0.6,1.8,0.6c1.2,0,3-1.8,3-4
				c0-1.4-0.5-3.1-0.8-4h6.2c1.3,0,2.5-1,2.6-2.3c0.1-0.7-0.2-1.4-0.6-1.9c0.4-0.4,0.7-1,0.7-1.6
				C-258.5,393.4-259,392.6-259.7,392.2z M-259.5,394.3c0,0.5-0.3,0.9-0.7,1.1c-0.2,0.1-0.3,0.2-0.3,0.4c0,0.2,0.1,0.4,0.2,0.4
				c0.5,0.3,0.8,0.8,0.7,1.4c-0.1,0.8-0.8,1.4-1.6,1.4h-6.9c-0.2,0-0.3,0.1-0.4,0.2c-0.1,0.1-0.1,0.3-0.1,0.5c0,0,1,2.6,1,4.3
				c0,1.6-1.5,3-2,3c-0.4,0-0.8-0.2-1-0.3v-3.2c0-0.1,0-0.1,0-0.2l-3-6.5c0-0.1-0.1-0.2-0.2-0.2l-1-0.5c-0.2-0.1-0.3-0.1-0.5,0
				c-0.1,0.1-0.2,0.3-0.2,0.4v0.5h-4.5c-0.8,0-1.5-0.7-1.5-1.5v-8c0-0.8,0.7-1.5,1.5-1.5h3c0.8,0,1.5,0.7,1.5,1.5
				c0,0.2,0.1,0.4,0.3,0.5c0.2,0.1,0.4,0,0.5-0.1c0.5-0.5,1.8-0.9,2.6-0.9h9.2c0.6,0,1.2,0.4,1.3,1c0.1,0.4,0,0.9-0.4,1.2
				c-0.1,0.1-0.2,0.3-0.1,0.5c0.1,0.2,0.2,0.3,0.4,0.3c0.6,0.1,1.1,0.6,1.1,1.2c0,0.3-0.1,0.7-0.4,0.9c-0.1,0.1-0.2,0.3-0.1,0.5
				c0.1,0.2,0.2,0.3,0.4,0.3C-260,393.1-259.5,393.6-259.5,394.3z"/>
		</g>
	</g>
	<g>
		<g>
			<path class="st1" d="M-274.5,396.5v-9c0-0.3-0.2-0.5-0.5-0.5s-0.5,0.2-0.5,0.5v9c0,0.3,0.2,0.5,0.5,0.5S-274.5,396.8-274.5,396.5
				z"/>
		</g>
	</g>
</g>
</svg>
