<?xml version="1.0" encoding="utf-8"?>
<!-- Generator: Adobe Illustrator 24.1.3, SVG Export Plug-In . SVG Version: 6.00 Build 0)  -->
<svg version="1.1" id="Camada_1" xmlns="http://www.w3.org/2000/svg" xmlns:xlink="http://www.w3.org/1999/xlink" x="0px" y="0px"
	 viewBox="0 0 30 30" style="enable-background:new 0 0 30 30;" xml:space="preserve">
<style type="text/css">
	.st0{fill:#ECEFF1;}
	.st1{fill:#388E3C;}
	.st2{fill:#2E7D32;}
	.st3{fill:#FAFAFA;}
</style>
<g>
	<path class="st0" d="M26.7,23.6H15.8c-0.4,0-0.8-0.4-0.8-0.8s0-15.2,0-15.6s0.4-0.8,0.8-0.8h10.9c0.4,0,0.8,0.3,0.8,0.8v15.6
		C27.5,23.2,27.1,23.6,26.7,23.6z"/>
	<g>
		<path class="st1" d="M18.9,11.1h-3.1c-0.4,0-0.8-0.3-0.8-0.8c0-0.4,0.4-0.8,0.8-0.8h3.1c0.4,0,0.8,0.4,0.8,0.8
			C19.7,10.7,19.3,11.1,18.9,11.1z"/>
		<path class="st1" d="M18.9,14.2h-3.1c-0.4,0-0.8-0.3-0.8-0.8c0-0.4,0.4-0.8,0.8-0.8h3.1c0.4,0,0.8,0.4,0.8,0.8
			C19.7,13.9,19.3,14.2,18.9,14.2z"/>
		<path class="st1" d="M18.9,17.3h-3.1c-0.4,0-0.8-0.4-0.8-0.8s0.4-0.8,0.8-0.8h3.1c0.4,0,0.8,0.4,0.8,0.8S19.3,17.3,18.9,17.3z"/>
		<path class="st1" d="M18.9,20.5h-3.1c-0.4,0-0.8-0.4-0.8-0.8s0.4-0.8,0.8-0.8h3.1c0.4,0,0.8,0.4,0.8,0.8S19.3,20.5,18.9,20.5z"/>
		<path class="st1" d="M23.6,11.1H22c-0.4,0-0.8-0.3-0.8-0.8c0-0.4,0.4-0.8,0.8-0.8h1.6c0.4,0,0.8,0.4,0.8,0.8
			C24.4,10.7,24,11.1,23.6,11.1z"/>
		<path class="st1" d="M23.6,14.2H22c-0.4,0-0.8-0.3-0.8-0.8c0-0.4,0.4-0.8,0.8-0.8h1.6c0.4,0,0.8,0.4,0.8,0.8
			C24.4,13.9,24,14.2,23.6,14.2z"/>
		<path class="st1" d="M23.6,17.3H22c-0.4,0-0.8-0.4-0.8-0.8s0.4-0.8,0.8-0.8h1.6c0.4,0,0.8,0.4,0.8,0.8S24,17.3,23.6,17.3z"/>
		<path class="st1" d="M23.6,20.5H22c-0.4,0-0.8-0.4-0.8-0.8s0.4-0.8,0.8-0.8h1.6c0.4,0,0.8,0.4,0.8,0.8S24,20.5,23.6,20.5z"/>
	</g>
	<path class="st2" d="M16.3,3.5c-0.2-0.1-0.4-0.2-0.6-0.2L3.1,5.6C2.8,5.7,2.5,6,2.5,6.4v17.2c0,0.4,0.3,0.7,0.6,0.8l12.5,2.3
		c0,0,0.1,0,0.1,0c0.2,0,0.4-0.1,0.5-0.2c0.2-0.1,0.3-0.4,0.3-0.6V4.1C16.6,3.8,16.5,3.6,16.3,3.5z"/>
	<path class="st3" d="M13.2,17.6l-2.5-2.8l2.5-3.2c0.3-0.3,0.2-0.8-0.1-1.1s-0.8-0.2-1.1,0.1l-2.3,3l-2-2.2C7.5,11,7,11,6.7,11.3
		c-0.3,0.3-0.4,0.8-0.1,1.1l2.1,2.5l-2.2,2.8c-0.3,0.3-0.2,0.8,0.1,1.1c0.1,0.1,0.3,0.2,0.5,0.2c0.2,0,0.5-0.1,0.6-0.3l2-2.6
		l2.3,2.6c0.2,0.2,0.4,0.3,0.6,0.3c0.2,0,0.4-0.1,0.5-0.2C13.5,18.4,13.5,17.9,13.2,17.6z"/>
</g>
</svg>
