<?xml version="1.0" encoding="utf-8"?>
<!-- Generator: Adobe Illustrator 16.0.0, SVG Export Plug-In . SVG Version: 6.00 Build 0)  -->
<!DOCTYPE svg PUBLIC "-//W3C//DTD SVG 1.1//EN" "http://www.w3.org/Graphics/SVG/1.1/DTD/svg11.dtd">
<svg version="1.1" id="Layer_1" xmlns="http://www.w3.org/2000/svg" xmlns:xlink="http://www.w3.org/1999/xlink" x="0px" y="0px"
	 width="35px" height="35px" viewBox="0 0 35 35" enable-background="new 0 0 35 35" xml:space="preserve">
<image overflow="visible" width="20" height="20" xlink:href="visualizar.png"  transform="matrix(1 0 0 1 42.25 12.9717)">
</image>
<g>
	<path fill="none" stroke="#CC092F" stroke-width="0.9" stroke-miterlimit="10" d="M24.19,29.766H10.81
		c-0.924,0-1.672-0.75-1.672-1.672V10.81h16.726v17.284C25.863,29.016,25.114,29.766,24.19,29.766z"/>
	<path fill="none" stroke="#CC092F" stroke-width="0.9" stroke-miterlimit="10" d="M25.863,7.464H9.137
		c-0.616,0-1.116,0.5-1.116,1.116v2.229h18.957V8.581C26.979,7.964,26.479,7.464,25.863,7.464z"/>
	<path fill="none" stroke="#CC092F" stroke-width="0.9" stroke-miterlimit="10" d="M14.154,7.464V6.35
		c0-0.616,0.499-1.115,1.116-1.115h4.46c0.616,0,1.115,0.499,1.115,1.115v1.114"/>
	<line fill="none" stroke="#CC092F" stroke-width="0.9" stroke-miterlimit="10" x1="13.596" y1="14.155" x2="13.596" y2="25.863"/>
	<line fill="none" stroke="#CC092F" stroke-width="0.9" stroke-miterlimit="10" x1="17.5" y1="14.155" x2="17.5" y2="25.863"/>
	<line fill="none" stroke="#CC092F" stroke-width="0.9" stroke-miterlimit="10" x1="21.402" y1="14.155" x2="21.402" y2="25.863"/>
</g>
<rect x="-176.25" y="-50.25" fill="none" stroke="#505050" stroke-width="0.6" stroke-miterlimit="10" width="0.75" height="0.25"/>
<rect x="-156.25" y="-26.375" fill="none" stroke="#CC092F" stroke-width="0.6" stroke-miterlimit="10" width="26" height="16.25"/>
<g>
	<circle fill="none" stroke="#CC092F" stroke-width="0.9" stroke-miterlimit="10" cx="50.559" cy="2.114" r="6.765"/>
	<path fill="none" stroke="#CC092F" stroke-width="0.9" stroke-miterlimit="10" d="M47.177,2.114c0-1.868,1.514-3.382,3.382-3.382"
		/>
	<line fill="none" stroke="#CC092F" stroke-width="0.9" stroke-miterlimit="10" x1="55.746" y1="6.456" x2="60.706" y2="11.416"/>
</g>
</svg>
