<?xml version="1.0" encoding="utf-8"?>
<!-- Generator: Adobe Illustrator 24.1.2, SVG Export Plug-In . SVG Version: 6.00 Build 0)  -->
<svg version="1.1" id="Camada_1" xmlns="http://www.w3.org/2000/svg" xmlns:xlink="http://www.w3.org/1999/xlink" x="0px" y="0px"
	 viewBox="0 0 20 20" style="enable-background:new 0 0 20 20;" xml:space="preserve">
<style type="text/css">
	.st0{fill:#4D4E53;}
</style>
<g>
	<path class="st0" d="M13.9,17.4l-0.3,1.1c-0.8,0.3-1.4,0.6-1.9,0.7c-0.5,0.2-1,0.2-1.7,0.2c-1,0-1.7-0.2-2.2-0.7
		c-0.5-0.5-0.8-1.1-0.8-1.8c0-0.3,0-0.6,0.1-0.9c0-0.3,0.1-0.6,0.2-1l1-3.5c0.1-0.3,0.2-0.7,0.2-1c0.1-0.3,0.1-0.6,0.1-0.8
		c0-0.4-0.1-0.8-0.3-0.9C8.2,8.7,7.8,8.6,7.3,8.6c-0.3,0-0.5,0-0.8,0.1C6.2,8.8,6,8.9,5.8,9l0.3-1.1c0.7-0.3,1.3-0.5,1.9-0.7
		C8.5,7,9.1,6.9,9.6,6.9c1,0,1.7,0.2,2.2,0.7c0.5,0.5,0.8,1.1,0.8,1.8c0,0.2,0,0.4-0.1,0.8c0,0.4-0.1,0.7-0.2,1.1l-1,3.5
		c-0.1,0.3-0.2,0.6-0.2,1c-0.1,0.4-0.1,0.6-0.1,0.8c0,0.5,0.1,0.8,0.3,1c0.2,0.2,0.6,0.3,1.1,0.3c0.2,0,0.5,0,0.8-0.1
		C13.6,17.6,13.8,17.5,13.9,17.4z M14.2,2.7c0,0.6-0.2,1.1-0.7,1.6c-0.5,0.4-1,0.6-1.7,0.6c-0.7,0-1.2-0.2-1.7-0.6
		c-0.5-0.4-0.7-1-0.7-1.6c0-0.6,0.2-1.1,0.7-1.6c0.5-0.4,1-0.7,1.7-0.7c0.7,0,1.2,0.2,1.7,0.7C14,1.6,14.2,2.1,14.2,2.7z"/>
</g>
</svg>
