<?xml version="1.0" encoding="utf-8"?>
<!-- Generator: Adobe Illustrator 24.1.3, SVG Export Plug-In . SVG Version: 6.00 Build 0)  -->
<svg version="1.1" id="Capa_1" xmlns="http://www.w3.org/2000/svg" xmlns:xlink="http://www.w3.org/1999/xlink" x="0px" y="0px"
	 viewBox="0 0 512 512" style="enable-background:new 0 0 512 512;" xml:space="preserve">
<style type="text/css">
	.st0{fill:#FFBC00;}
</style>
<g>
	<g>
		<g>
			<path class="st0" d="M149.3,288V21.5c-8.9-6.7-20-10.8-32-10.8h-64C23.9,10.7,0,34.6,0,64v170.7C0,264.1,23.9,288,53.3,288H149.3
				z"/>
		</g>
	</g>
	<g>
		<g>
			<path class="st0" d="M485.7,165.3c3.3-6.5,5-13.8,5-21.3c0-18.5-10.6-34.8-26.4-42.7c4.9-9.7,6.3-20.9,3.9-32
				C463.4,47.7,443.1,32,419.8,32H224c-14,0-36,4.4-53.3,12.6v228.7l2.6,1.3l61.4,133.1V480c0,3.2,1.5,6.3,4,8.3
				c0.7,0.5,16.5,13,38.7,13c24.7,0,64-39.1,64-85.3c0-29.2-10.5-65.5-17-85.3h131.8c28.7,0,53.1-21.2,55.6-48.4
				c1.4-15.2-3.7-29.8-13.7-40.7c8.8-8.8,13.9-20.8,13.9-33.6C512,189.5,501.4,173.3,485.7,165.3z"/>
		</g>
	</g>
</g>
</svg>
