<?xml version="1.0" encoding="utf-8"?>
<!-- Generator: Adobe Illustrator 24.1.3, SVG Export Plug-In . SVG Version: 6.00 Build 0)  -->
<svg version="1.1" id="Camada_1" xmlns="http://www.w3.org/2000/svg" xmlns:xlink="http://www.w3.org/1999/xlink" x="0px" y="0px"
	 viewBox="0 0 32 32" style="enable-background:new 0 0 32 32;" xml:space="preserve">
<style type="text/css">
	.st0{fill:#26445A;}
	.st1{fill:#FAFAFA;}
</style>
<g>
	<path class="st0" d="M16,1C7.7,1,1,7.7,1,16s6.7,15,15,15s15-6.7,15-15S24.3,1,16,1z"/>
	<path class="st1" d="M22.6,17.2h-5.3v5.3c0,0.7-0.6,1.2-1.2,1.2c-0.7,0-1.2-0.6-1.2-1.2v-5.3H9.4c-0.7,0-1.2-0.6-1.2-1.2
		c0-0.7,0.6-1.2,1.2-1.2h5.3V9.4c0-0.7,0.6-1.2,1.2-1.2s1.2,0.6,1.2,1.2v5.3h5.3c0.7,0,1.2,0.6,1.2,1.2S23.3,17.2,22.6,17.2z"/>
</g>
</svg>
