<?xml version="1.0" encoding="utf-8"?>
<!-- Generator: Adobe Illustrator 24.1.2, SVG Export Plug-In . SVG Version: 6.00 Build 0)  -->
<svg version="1.1" id="Camada_1" xmlns="http://www.w3.org/2000/svg" xmlns:xlink="http://www.w3.org/1999/xlink" x="0px" y="0px"
	 viewBox="0 0 20 20" style="enable-background:new 0 0 20 20;" xml:space="preserve">
<style type="text/css">
	.st0{fill:#799282;}
</style>
<path class="st0" d="M18.5,11.5c-0.3,0-0.5,0.2-0.5,0.5v4.2c0,0.8-0.6,1.4-1.4,1.4H3.4c-0.8,0-1.4-0.6-1.4-1.4V3.8
	c0-0.8,0.6-1.4,1.4-1.4h4.2C7.8,2.4,8,2.2,8,1.9c0-0.3-0.2-0.5-0.5-0.5H3.4C2.1,1.5,1,2.5,1,3.8v12.3c0,1.3,1.1,2.4,2.4,2.4h13.3
	c1.3,0,2.4-1.1,2.4-2.4V12C19,11.7,18.8,11.5,18.5,11.5z"/>
<path class="st0" d="M15.8,3.7c-0.8-0.8-2.2-0.8-3,0l-8.4,8.4c-0.1,0.1-0.1,0.1-0.1,0.2l-1.1,4c0,0.2,0,0.3,0.1,0.5
	c0.1,0.1,0.3,0.2,0.5,0.1l4-1.1c0.1,0,0.2-0.1,0.2-0.1l8.4-8.4c0.8-0.8,0.8-2.2,0-3L15.8,3.7z M5.3,12.4l6.9-6.9l2.2,2.2l-6.9,6.9
	L5.3,12.4z M4.9,13.3l1.8,1.8l-2.5,0.7L4.9,13.3z M15.6,6.6l-0.5,0.5l-2.2-2.2l0.5-0.5c0.5-0.5,1.2-0.5,1.7,0l0.6,0.6
	C16.1,5.4,16.1,6.1,15.6,6.6z"/>
</svg>
