<?xml version="1.0" encoding="utf-8"?>
<!-- Generator: Adobe Illustrator 24.2.1, SVG Export Plug-In . SVG Version: 6.00 Build 0)  -->
<svg version="1.1" id="Camada_1" xmlns="http://www.w3.org/2000/svg" xmlns:xlink="http://www.w3.org/1999/xlink" x="0px" y="0px"
	 viewBox="0 0 20 20" style="enable-background:new 0 0 20 20;" xml:space="preserve">
<style type="text/css">
	.st0{fill:#D70C34;}
</style>
<path class="st0" d="M5.9,18.3c-1.1,0-2.1-0.4-2.8-1.2l-0.9-0.9c-1.6-1.6-1.6-4.1,0-5.7l0,0l7.2-7.2c0.1-0.1,0.4-0.2,0.5,0
	c0.1,0.1,0.2,0.4,0,0.5c0,0,0,0,0,0l-7.2,7.2c-1.3,1.3-1.3,3.3,0,4.6l0.9,0.9c1.3,1.3,3.3,1.3,4.6,0l9.4-9.4c0.9-0.9,0.9-2.4,0-3.3
	l-0.7-0.7c-0.9-0.9-2.4-0.9-3.3,0l-8.5,8.5c-0.6,0.6-0.6,1.5,0,2c0,0,0,0,0,0l0.4,0.4c0.6,0.5,1.5,0.5,2,0l6.3-6.3
	c0.1-0.1,0.4-0.2,0.5,0c0.1,0.1,0.2,0.4,0,0.5c0,0,0,0,0,0l-6.3,6.3c-0.9,0.8-2.2,0.8-3.1,0l-0.4-0.4c-0.9-0.9-0.9-2.2,0-3.1
	l8.5-8.5c1.2-1.2,3.2-1.2,4.4,0c0,0,0,0,0,0l0.7,0.7c1.2,1.2,1.2,3.2,0,4.4c0,0,0,0,0,0l-9.4,9.4C7.9,17.9,6.9,18.3,5.9,18.3z"/>
</svg>
