<?xml version="1.0" encoding="utf-8"?>
<!-- Generator: Adobe Illustrator 24.1.3, SVG Export Plug-In . SVG Version: 6.00 Build 0)  -->
<svg version="1.1" id="Layer_1" xmlns="http://www.w3.org/2000/svg" xmlns:xlink="http://www.w3.org/1999/xlink" x="0px" y="0px"
	 viewBox="0 0 35 35" style="enable-background:new 0 0 35 35;" xml:space="preserve">
<style type="text/css">
	.st0{fill:none;stroke:#505050;stroke-width:0.6;stroke-miterlimit:10;}
	.st1{fill:#FFFFFF;}
</style>
<rect x="-488.3" y="354.7" class="st0" width="0.8" height="0.3"/>
<g>
	<g>
		<g>
			<path class="st1" d="M29.5,19.7c0-0.6-0.2-1.2-0.6-1.6c0.5-0.5,0.7-1.2,0.6-1.9c-0.1-1.3-1.3-2.2-2.6-2.2h-6.2
				c0.3-1,0.8-2.6,0.8-4c0-2.2-1.8-4-3-4c-1,0-1.8,0.6-1.8,0.6c-0.1,0.1-0.2,0.2-0.2,0.4v3.4l-2.9,6.3l-0.1,0.1v-0.2
				c0-0.2-0.2-0.5-0.5-0.5H8c-1.4,0-2.5,1.1-2.5,2.5v8c0,1.4,1.1,2.5,2.5,2.5h3c1.1,0,2-0.7,2.3-1.7c0.8,0.4,1.9,0.6,2.6,0.6h9.2
				c1.1,0,2.1-0.7,2.2-1.8c0.1-0.6,0.1-1-0.2-1.5c0.7-0.4,1.2-1.1,1.2-2c0-0.3-0.1-0.7-0.2-1C29,21.4,29.5,20.6,29.5,19.7z M27.4,21
				c-0.2,0-0.3,0.2-0.4,0.3c-0.1,0.2,0,0.4,0.2,0.6s0.4,0.6,0.4,0.9c0,0.6-0.5,1.2-1.1,1.2c-0.2,0-0.3,0.2-0.4,0.3
				c-0.1,0.2,0,0.4,0.2,0.6c0.3,0.3,0.5,0.7,0.4,1.2c-0.2,0.6-0.6,1-1.3,1h-9.2c-0.8,0-2.2-0.4-2.6-0.9C13.4,26,13.3,26,13,26.1
				c-0.2,0.1-0.3,0.2-0.3,0.5c0,0.8-0.6,1.5-1.5,1.5h-3c-0.8,0-1.5-0.6-1.5-1.5v-8c0-0.8,0.6-1.5,1.5-1.5h4.5v0.5
				c0,0.2,0.1,0.3,0.2,0.4c0.2,0.1,0.3,0.1,0.5,0l1-0.5c0.1-0.1,0.2-0.2,0.2-0.2l3-6.5c0-0.1,0.1-0.2,0.1-0.2V7.4
				c0.2-0.1,0.6-0.2,1-0.2c0.6,0,2,1.4,2,3c0,1.8-1,4.3-1,4.3c-0.1,0.2,0,0.3,0.1,0.5s0.2,0.2,0.4,0.2h6.9c0.8,0,1.5,0.6,1.6,1.4
				c0.1,0.6-0.2,1.1-0.7,1.4c-0.2,0.1-0.2,0.2-0.2,0.5s0.1,0.3,0.2,0.4c0.4,0.2,0.7,0.6,0.7,1.1C28.5,20.4,28,20.9,27.4,21z"/>
		</g>
	</g>
	<g>
		<g>
			<path class="st1" d="M13,17c-0.2,0-0.5,0.2-0.5,0.5v9.1c0,0.2,0.2,0.5,0.5,0.5c0.2,0,0.5-0.2,0.5-0.5v-9.1
				C13.4,17.3,13.2,17,13,17z"/>
		</g>
	</g>
</g>
</svg>
