<?xml version="1.0" encoding="utf-8"?>
<!-- Generator: Adobe Illustrator 19.0.0, SVG Export Plug-In . SVG Version: 6.00 Build 0)  -->
<svg version="1.1" id="Layer_1" xmlns="http://www.w3.org/2000/svg" xmlns:xlink="http://www.w3.org/1999/xlink" x="0px" y="0px"
	 viewBox="-12 13 35 35" style="enable-background:new -12 13 35 35;" xml:space="preserve">
<style type="text/css">
	.st0{fill:none;stroke:#505050;stroke-width:0.6;stroke-miterlimit:10;}
	.st1{fill:#495A79;}
	.st2{fill:#FFDE33;}
</style>
<rect x="-200.3" y="-24.3" class="st0" width="0.8" height="0.3"/>
<g>
	<path class="st1" d="M22.1,39.1L9.9,16.7c-0.9-1.5-2.6-2.5-4.4-2.5s-3.4,0.9-4.4,2.5l-12.2,22.5c-0.9,1.6-1,3.5,0,5.1
		c0.9,1.6,2.6,2.6,4.4,2.6h24.5c1.8,0,3.5-1,4.4-2.6C23.1,42.7,23,40.7,22.1,39.1z"/>
	<path class="st2" d="M20.4,40.2L8.1,17.7c-0.5-0.9-1.5-1.5-2.6-1.5s-2.1,0.5-2.6,1.5L-9.4,40.2c-0.6,1-0.6,2.1,0,3.1
		c0.5,1,1.5,1.5,2.6,1.5h24.5c1.1,0,2.1-0.6,2.6-1.5C20.9,42.3,20.9,41.1,20.4,40.2z"/>
	<g>
		<path class="st1" d="M5.5,42.8c-1.1,0-2-0.9-2-2s0.9-2,2-2s2,0.9,2,2S6.6,42.8,5.5,42.8z"/>
		<path class="st1" d="M7.5,34.6c0,1.1-0.9,2-2,2s-2-0.9-2-2V24.5c0-1.1,0.9-2,2-2s2,0.9,2,2V34.6z"/>
	</g>
</g>
</svg>
