<?xml version="1.0" encoding="utf-8"?>
<!-- Generator: Adobe Illustrator 24.3.0, SVG Export Plug-In . SVG Version: 6.00 Build 0)  -->
<svg version="1.1" id="Layer_1" xmlns="http://www.w3.org/2000/svg" xmlns:xlink="http://www.w3.org/1999/xlink" x="0px" y="0px"
	 viewBox="0 0 40 40" style="enable-background:new 0 0 40 40;" xml:space="preserve">
<style type="text/css">
	.st0{fill:none;stroke:#AFC5DB;stroke-width:2;stroke-linecap:round;stroke-linejoin:round;stroke-miterlimit:10;}
</style>
<g>
	<g>
		<path class="st0" d="M29.3,10.4H4.8c-1.3,0-2.3,1.3-2.3,2.9V34c0,0.8,0.3,1.6,0.7,2.1l10.6-12.4L3.2,36.1c0.4,0.5,1,0.8,1.6,0.8
			h24.5c0.6,0,1.2-0.3,1.6-0.8L20.3,23.7L31,36.1c0.4-0.5,0.7-1.3,0.7-2.1V13.4C31.7,11.7,30.6,10.4,29.3,10.4z"/>
		<path class="st0" d="M18.6,25.7L31,11.3c-0.4-0.5-1-0.8-1.6-0.8H4.8c-0.6,0-1.2,0.3-1.6,0.8l12.3,14.4
			C16.4,26.6,17.7,26.6,18.6,25.7z"/>
	</g>
	<path class="st0" d="M36.8,3.9C36.8,3.9,36.8,3.9,36.8,3.9c-0.2-0.3-0.5-0.5-0.7-0.6c0,0-0.1,0-0.1,0c-0.1-0.1-0.2-0.1-0.3-0.1
		c-0.1,0-0.3-0.1-0.5-0.1H10.7c-0.2,0-0.3,0-0.5,0.1c-0.1,0-0.2,0.1-0.3,0.1c0,0-0.1,0-0.1,0C9.5,3.4,9.3,3.6,9,3.9c0,0,0,0,0,0
		C8.6,4.4,8.3,5.2,8.3,6v4.4h21c0.2,0,0.3,0,0.5,0.1c0.1,0,0.2,0.1,0.3,0.1c0,0,0.1,0,0.1,0c0.3,0.1,0.5,0.4,0.7,0.6c0,0,0,0,0,0
		c0.4,0.5,0.7,1.3,0.7,2.1v16.2h3.5c0.6,0,1.2-0.3,1.6-0.8c0.4-0.5,0.7-1.3,0.7-2.1V6C37.5,5.2,37.2,4.4,36.8,3.9z"/>
</g>
</svg>
