<?xml version="1.0" encoding="utf-8"?>
<!-- Generator: Adobe Illustrator 24.1.3, SVG Export Plug-In . SVG Version: 6.00 Build 0)  -->
<svg version="1.1" id="Camada_1" xmlns="http://www.w3.org/2000/svg" xmlns:xlink="http://www.w3.org/1999/xlink" x="0px" y="0px"
	 viewBox="0 0 25 25" style="enable-background:new 0 0 25 25;" xml:space="preserve">
<style type="text/css">
	.st0{fill:#11C25D;}
</style>
<g>
	<g>
		<g>
			<path class="st0" d="M22.9,4.5c-0.3-0.3-0.8-0.3-1.2,0l-9.9,9.9l-3.6-3.9c-0.3-0.3-0.8-0.4-1.2,0c-0.3,0.3-0.4,0.8,0,1.2l4.2,4.5
				c0.2,0.2,0.4,0.3,0.6,0.3c0,0,0,0,0,0c0.2,0,0.4-0.1,0.6-0.2L22.9,5.7C23.2,5.4,23.2,4.8,22.9,4.5z"/>
		</g>
	</g>
	<g>
		<g>
			<path class="st0" d="M22.7,11.7c-0.5,0-0.8,0.4-0.8,0.8c0,5.2-4.2,9.3-9.3,9.3c-5.2,0-9.3-4.2-9.3-9.3c0-5.2,4.2-9.3,9.3-9.3
				c0.5,0,0.8-0.4,0.8-0.8c0-0.5-0.4-0.8-0.8-0.8c-6.1,0-11,4.9-11,11c0,6.1,4.9,11,11,11c6.1,0,11-4.9,11-11
				C23.5,12,23.1,11.7,22.7,11.7z"/>
		</g>
	</g>
</g>
</svg>
