<?xml version="1.0" encoding="utf-8"?>
<!-- Generator: Adobe Illustrator 24.1.3, SVG Export Plug-In . SVG Version: 6.00 Build 0)  -->
<svg version="1.1" id="Camada_1" xmlns="http://www.w3.org/2000/svg" xmlns:xlink="http://www.w3.org/1999/xlink" x="0px" y="0px"
	 viewBox="0 0 32 42" style="enable-background:new 0 0 32 42;" xml:space="preserve">
<style type="text/css">
	.st0{fill:#2196F3;}
	.st1{fill:#1E88E5;}
	.st2{fill:#90CAF9;}
	.st3{fill:#FAFAFA;}
</style>
<g>
	<path class="st0" d="M31,11.9v28.1c0,0.9-0.7,1.7-1.7,1.7H2.7C1.7,41.8,1,41,1,40.1V1.9C1,1,1.7,0.2,2.7,0.2h16.7L31,11.9z"/>
	<path class="st1" d="M28.5,9.4v30.7c0,0.9-0.7,1.7-1.7,1.7h2.5c0.9,0,1.7-0.7,1.7-1.7V11.9L28.5,9.4z"/>
	<path class="st2" d="M31,11.9H21c-0.9,0-1.7-0.7-1.7-1.7v-10L31,11.9z"/>
	<g>
		<path class="st3" d="M24.1,20.5H7.9c-0.7,0-1.3-0.6-1.3-1.3c0-0.7,0.6-1.3,1.3-1.3h16.3c0.7,0,1.3,0.6,1.3,1.3
			C25.4,19.9,24.8,20.5,24.1,20.5z"/>
		<path class="st3" d="M24.1,25.5H7.9c-0.7,0-1.3-0.6-1.3-1.3c0-0.7,0.6-1.3,1.3-1.3h16.3c0.7,0,1.3,0.6,1.3,1.3
			C25.4,24.9,24.8,25.5,24.1,25.5z"/>
		<path class="st3" d="M24.1,30.5H7.9c-0.7,0-1.3-0.6-1.3-1.3c0-0.7,0.6-1.3,1.3-1.3h16.3c0.7,0,1.3,0.6,1.3,1.3
			C25.4,30,24.8,30.5,24.1,30.5z"/>
		<path class="st3" d="M17.1,35.5H7.9c-0.7,0-1.3-0.6-1.3-1.3c0-0.7,0.6-1.3,1.3-1.3h9.3c0.7,0,1.3,0.6,1.3,1.3S17.8,35.5,17.1,35.5
			z"/>
	</g>
</g>
</svg>
