<?xml version="1.0" encoding="utf-8"?>
<!-- Generator: Adobe Illustrator 24.1.3, SVG Export Plug-In . SVG Version: 6.00 Build 0)  -->
<svg version="1.1" id="Camada_1" xmlns="http://www.w3.org/2000/svg" xmlns:xlink="http://www.w3.org/1999/xlink" x="0px" y="0px"
	 viewBox="0 0 50 50" style="enable-background:new 0 0 50 50;" xml:space="preserve">
<style type="text/css">
	.st0{fill:#44C4A1;}
	.st1{fill:#EBF0F3;}
	.st2{fill:#FFFFFF;}
</style>
<g>
	<path class="st0" d="M41,5.8v39.8H10.3C9.6,45.5,9,45,9,44.3V11.9l8.1-7.4h22.7C40.5,4.6,41,5.1,41,5.8z"/>
	<polygon class="st1" points="17.1,4.5 16.5,12.4 9,11.9 	"/>
</g>
<path class="st2" d="M25,15.1c2.5,0,4.6,2,4.6,4.6h1.5c0-3.1-2.3-5.6-5.3-6v-2.3h-1.5v2.3c-3.3,0.4-5.7,3.5-5.2,6.8
	c0.4,3,3,5.3,6,5.3c2.5,0,4.6,2,4.6,4.6s-2,4.6-4.6,4.6s-4.6-2-4.6-4.6h-1.5c0,3.1,2.3,5.6,5.3,6v2.3h1.5v-2.3
	c3.3-0.4,5.7-3.5,5.2-6.8c-0.4-3-3-5.3-6-5.3c-2.5,0-4.6-2-4.6-4.6S22.5,15.1,25,15.1z"/>
</svg>
