<?xml version="1.0" encoding="utf-8"?>
<!-- Generator: Adobe Illustrator 24.3.0, SVG Export Plug-In . SVG Version: 6.00 Build 0)  -->
<svg version="1.1" id="Camada_1" xmlns="http://www.w3.org/2000/svg" xmlns:xlink="http://www.w3.org/1999/xlink" x="0px" y="0px"
	 viewBox="0 0 32 32" style="enable-background:new 0 0 32 32;" xml:space="preserve">
<style type="text/css">
	.st0{fill:url(#SVGID_1_);}
	.st1{fill:#EBEFF0;}
	.st2{fill:url(#SVGID_2_);}
	.st3{fill:url(#SVGID_3_);}
	.st4{fill:url(#SVGID_4_);}
</style>
<g>
	<linearGradient id="SVGID_1_" gradientUnits="userSpaceOnUse" x1="44.8669" y1="16" x2="45.3669" y2="16">
		<stop  offset="0" style="stop-color:#FCB21F"/>
		<stop  offset="1" style="stop-color:#C98F0D"/>
	</linearGradient>
	<path class="st0" d="M4.5,2.3v27.5c0,1.1,0.9,2,2,2h19.1c1.1,0,2-0.9,2-2V7.5c0-0.6-0.2-1.2-0.7-1.6l-5-5c-0.4-0.4-1-0.7-1.6-0.7
		H6.5C5.4,0.3,4.5,1.2,4.5,2.3z"/>
	<g>
		<g>
			<g>
				<g>
					<path class="st1" d="M9.7,15.4h12.5c0.3,0,0.6-0.3,0.6-0.6v-1.4c0-0.3-0.3-0.6-0.6-0.6H9.7c-0.3,0-0.6,0.3-0.6,0.6v1.4
						C9.2,15.2,9.4,15.4,9.7,15.4L9.7,15.4z"/>
				</g>
			</g>
		</g>
		<g>
			<g>
				<g>
					<path class="st1" d="M9.7,19.4h12.5c0.3,0,0.6-0.3,0.6-0.6v-1.4c0-0.3-0.3-0.6-0.6-0.6H9.7c-0.3,0-0.6,0.3-0.6,0.6v1.4
						C9.2,19.1,9.4,19.4,9.7,19.4L9.7,19.4z"/>
				</g>
			</g>
		</g>
		<g>
			<g>
				<g>
					<path class="st1" d="M9.7,23.3h12.5c0.3,0,0.6-0.3,0.6-0.6v-1.4c0-0.3-0.3-0.6-0.6-0.6H9.7c-0.3,0-0.6,0.3-0.6,0.6v1.4
						C9.2,23,9.4,23.3,9.7,23.3L9.7,23.3z"/>
				</g>
			</g>
		</g>
		<g>
			<g>
				<g>
					<path class="st1" d="M9.6,27.2h6.3c0.2,0,0.4-0.2,0.4-0.4v-1.7c0-0.2-0.2-0.4-0.4-0.4H9.6c-0.2,0-0.4,0.2-0.4,0.4v1.7
						C9.2,27,9.3,27.2,9.6,27.2L9.6,27.2z"/>
				</g>
			</g>
		</g>
	</g>
	
		<linearGradient id="SVGID_2_" gradientUnits="userSpaceOnUse" x1="25.5204" y1="16.8997" x2="23.1598" y2="10.002" gradientTransform="matrix(1.0039 0 0 1.0039 7.778525e-03 -5.9953)">
		<stop  offset="0" style="stop-color:#4C8DF1;stop-opacity:0"/>
		<stop  offset="1" style="stop-color:#4256AC"/>
	</linearGradient>
	<path class="st2" d="M21.9,1c-0.3-0.3-0.7-0.5-1-0.6v6.4l6.7,6.7v-6c0-0.6-0.2-1.2-0.7-1.6L21.9,1z"/>
	
		<linearGradient id="SVGID_3_" gradientUnits="userSpaceOnUse" x1="21.3256" y1="9.8926" x2="24.0676" y2="12.6346" gradientTransform="matrix(1.0039 0 0 1.0039 7.778525e-03 -5.9953)">
		<stop  offset="1.281415e-03" style="stop-color:#E9A900"/>
		<stop  offset="1" style="stop-color:#FFCE00"/>
	</linearGradient>
	<path class="st3" d="M27.4,7L27.4,7l-6,0.1c-0.4,0-0.8-0.3-0.8-0.8v-6h0.1c0.6,0.2,1,0.4,1.3,0.7l4.8,4.8C27.1,6.1,27.3,6.5,27.4,7
		L27.4,7z"/>
	
		<linearGradient id="SVGID_4_" gradientUnits="userSpaceOnUse" x1="1554.1038" y1="34.7062" x2="1554.1038" y2="37.7465" gradientTransform="matrix(-1.0039 0 0 1.0039 1576.1648 -5.9953)">
		<stop  offset="0" style="stop-color:#BFB500;stop-opacity:0"/>
		<stop  offset="1" style="stop-color:#FFAB15"/>
	</linearGradient>
	<path class="st4" d="M27.5,27.8v1.9c0,1.1-0.9,2-2,2h-19c-1.1,0-2-0.9-2-2v-1.9H27.5z"/>
</g>
</svg>
