<?xml version="1.0" encoding="utf-8"?>
<!-- Generator: Adobe Illustrator 24.2.0, SVG Export Plug-In . SVG Version: 6.00 Build 0)  -->
<svg version="1.1" id="Camada_1" xmlns="http://www.w3.org/2000/svg" xmlns:xlink="http://www.w3.org/1999/xlink" x="0px" y="0px"
	 viewBox="0 0 20 20" style="enable-background:new 0 0 20 20;" xml:space="preserve">
<style type="text/css">
	.st0{fill:#4C4C4E;}
</style>
<path class="st0" d="M4,19h9.6c0.8,0,1.5-0.7,1.5-1.5v-1.2H16c0.8,0,1.5-0.7,1.5-1.5V5.4c0-0.4-0.2-0.8-0.5-1.1l-3.2-2.9
	c-0.3-0.3-0.6-0.4-1-0.4H7.9C7.1,1,6.4,1.7,6.4,2.5v1.2H4c-0.8,0-1.5,0.7-1.5,1.5v12.3C2.5,18.3,3.2,19,4,19z M7,2.5
	C7,2,7.4,1.6,7.9,1.6h4.9c0.1,0,0.1,0,0.2,0v2.1c0,0.8,0.7,1.5,1.5,1.5h0.9V4.6h-0.9c-0.5,0-0.9-0.4-0.9-0.9V2l3,2.8
	c0.2,0.2,0.3,0.4,0.3,0.7v9.4c0,0.5-0.4,0.9-0.9,0.9h-0.9V8.1c0-0.4-0.2-0.8-0.5-1.1l-3.2-2.9c-0.3-0.3-0.6-0.4-1-0.4H7V2.5z
	 M3.1,5.2c0-0.5,0.4-0.9,0.9-0.9h6.4c0.1,0,0.1,0,0.2,0v2.1c0,0.8,0.7,1.5,1.5,1.5H13V7.3h-0.9c-0.5,0-0.9-0.4-0.9-0.9V4.7l3,2.8
	c0.2,0.2,0.3,0.4,0.3,0.7v9.4c0,0.5-0.4,0.9-0.9,0.9H4c-0.5,0-0.9-0.4-0.9-0.9V5.2z"/>
</svg>
