<svg xmlns="http://www.w3.org/2000/svg" viewBox="0 0 39.53 26.35"><defs><style>.cls-1{fill:#29b762;}.cls-2{fill:#35d877;}.cls-3{fill:#11c25d;}</style></defs><g id="Layer_2" data-name="Layer 2"><g id="Camada_1" data-name="Camada 1"><path class="cls-1" d="M38.57,24.87a4.11,4.11,0,0,1-3.16,1.48H4.12A4.11,4.11,0,0,1,1,24.87l15.1-12.58,1.56,1.07a3.78,3.78,0,0,0,4.29,0l1.56-1.07Z"/><path class="cls-2" d="M38.8,1.8,23.47,12.29l-1.56,1.07a3.78,3.78,0,0,1-4.29,0l-1.56-1.07L.72,1.78A4.15,4.15,0,0,1,4.12,0H35.41A4,4,0,0,1,38.8,1.8Z"/><path class="cls-3" d="M16.06,12.29,1,24.87a4.1,4.1,0,0,1-1-2.63V4.12A4.14,4.14,0,0,1,.72,1.78Z"/><path class="cls-3" d="M39.53,4.12V22.24a4.1,4.1,0,0,1-1,2.63L23.47,12.29,38.8,1.8A4,4,0,0,1,39.53,4.12Z"/></g></g></svg>