<?xml version="1.0" encoding="utf-8"?>
<!-- Generator: Adobe Illustrator 24.3.0, SVG Export Plug-In . SVG Version: 6.00 Build 0)  -->
<svg version="1.1" id="Camada_1" xmlns="http://www.w3.org/2000/svg" xmlns:xlink="http://www.w3.org/1999/xlink" x="0px" y="0px"
	 viewBox="0 0 32 32" style="enable-background:new 0 0 32 32;" xml:space="preserve">
<style type="text/css">
	.st0{fill:#499ED0;stroke:#499ED0;stroke-miterlimit:10;}
</style>
<path class="st0" d="M29.2,28.3H12.5c-4.8,0-8.8-3.9-8.8-8.8c0-4.8,3.9-8.8,8.8-8.8h13.7l-5.5,5.5c-0.3,0.3-0.3,0.9,0,1.2
	c0.2,0.2,0.4,0.3,0.6,0.3c0.2,0,0.4-0.1,0.6-0.3l7-7c0.1-0.1,0.1-0.2,0.2-0.3c0.1-0.2,0.1-0.5,0-0.7c0-0.1-0.1-0.2-0.2-0.3l-7-7
	c-0.3-0.3-0.9-0.3-1.2,0c-0.3,0.3-0.3,0.9,0,1.2L26.2,9H12.5C6.7,9,2,13.7,2,19.5C2,25.3,6.7,30,12.5,30h16.7c0.5,0,0.9-0.4,0.9-0.9
	C30,28.7,29.6,28.3,29.2,28.3z"/>
</svg>
