<?xml version="1.0" encoding="utf-8"?>
<!-- Generator: Adobe Illustrator 24.3.0, SVG Export Plug-In . SVG Version: 6.00 Build 0)  -->
<svg version="1.1" id="Camada_1" xmlns="http://www.w3.org/2000/svg" xmlns:xlink="http://www.w3.org/1999/xlink" x="0px" y="0px"
	 viewBox="0 0 32 32" style="enable-background:new 0 0 32 32;" xml:space="preserve">
<style type="text/css">
	.st0{fill:none;stroke:#CC092F;stroke-width:0.9;stroke-miterlimit:10;}
</style>
<g>
	<path class="st0" d="M23.9,30.5H8.1c-1.1,0-2-0.9-2-2V8.1h19.8v20.5C25.9,29.6,25,30.5,23.9,30.5z"/>
	<path class="st0" d="M25.9,4.1H6.1c-0.7,0-1.3,0.6-1.3,1.3v2.6h22.5V5.4C27.2,4.7,26.6,4.1,25.9,4.1z"/>
	<path class="st0" d="M12,4.1V2.8c0-0.7,0.6-1.3,1.3-1.3h5.3c0.7,0,1.3,0.6,1.3,1.3v1.3"/>
	<line class="st0" x1="11.4" y1="12" x2="11.4" y2="25.9"/>
	<line class="st0" x1="16" y1="12" x2="16" y2="25.9"/>
	<line class="st0" x1="20.6" y1="12" x2="20.6" y2="25.9"/>
</g>
</svg>
