<?xml version="1.0" encoding="utf-8"?>
<!-- Generator: Adobe Illustrator 24.3.0, SVG Export Plug-In . SVG Version: 6.00 Build 0)  -->
<svg version="1.1" id="Camada_1" xmlns="http://www.w3.org/2000/svg" xmlns:xlink="http://www.w3.org/1999/xlink" x="0px" y="0px"
	 viewBox="0 0 32 32" style="enable-background:new 0 0 32 32;" xml:space="preserve">
<style type="text/css">
	.st0{fill:#799282;}
</style>
<g>
	<path class="st0" d="M27.7,11.7h-0.7V8.2c0,0,0,0,0-0.1c0-0.1,0-0.3-0.1-0.4L21,1.1c0,0,0,0,0,0c0,0-0.1-0.1-0.1-0.1c0,0,0,0,0,0
		c0,0-0.1,0-0.1,0c0,0,0,0,0,0c0,0-0.1,0-0.1,0H6.2c-0.7,0-1.2,0.5-1.2,1.2v9.6H4.3c-0.9,0-1.7,0.8-1.7,1.7v8.8
		c0,0.9,0.8,1.7,1.7,1.7h0.7v6c0,0.7,0.5,1.2,1.2,1.2h19.5c0.7,0,1.2-0.5,1.2-1.2v-6h0.7c0.9,0,1.7-0.8,1.7-1.7v-8.8
		C29.4,12.5,28.6,11.7,27.7,11.7z M6.2,2.1h13.7v6.1c0,0.3,0.3,0.6,0.6,0.6h5.2v3H6.2V2.1z M18.4,17.6c0,2.6-1.6,4.2-3.9,4.2
		c-2.4,0-3.8-1.8-3.8-4.1c0-2.4,1.5-4.2,3.9-4.2C17.1,13.6,18.4,15.4,18.4,17.6z M5.4,21.7v-8h1.8v6.5h3.2v1.5L5.4,21.7L5.4,21.7z
		 M25.8,29.6H6.2v-5.7h19.5L25.8,29.6L25.8,29.6z M26.3,21.3c-0.6,0.2-1.6,0.5-2.7,0.5c-1.5,0-2.5-0.4-3.3-1.1
		c-0.7-0.7-1.1-1.7-1.1-2.9c0-2.7,1.9-4.2,4.6-4.2c1,0,1.8,0.2,2.2,0.4l-0.4,1.5c-0.4-0.2-1-0.3-1.9-0.3c-1.5,0-2.7,0.9-2.7,2.6
		c0,1.7,1,2.6,2.5,2.6c0.4,0,0.7,0,0.9-0.1v-1.7h-1.2v-1.4h3L26.3,21.3L26.3,21.3z"/>
	<path class="st0" d="M12.6,17.7c0,1.6,0.7,2.7,2,2.7c1.2,0,1.9-1.2,1.9-2.7c0-1.4-0.7-2.7-1.9-2.7C13.3,15,12.6,16.2,12.6,17.7z"/>
</g>
</svg>
