<?xml version="1.0" encoding="utf-8"?>
<!-- Generator: Adobe Illustrator 24.1.3, SVG Export Plug-In . SVG Version: 6.00 Build 0)  -->
<svg version="1.1" id="Camada_1" xmlns="http://www.w3.org/2000/svg" xmlns:xlink="http://www.w3.org/1999/xlink" x="0px" y="0px"
	 viewBox="0 0 25 25" style="enable-background:new 0 0 25 25;" xml:space="preserve">
<style type="text/css">
	.st0{fill:#26435A;}
</style>
<g>
	<path class="st0" d="M22.6,2.1H6.2c-0.6,0-1.1,0.5-1.1,1.1V5H2.4C1.8,5,1.3,5.5,1.3,6.1v14.5c0,1.2,1,2.2,2.2,2.2h0c0,0,0,0,0,0
		h11.6c0.2,0,0.3-0.1,0.3-0.3c0-0.2-0.1-0.3-0.3-0.3h-10c0.4-0.4,0.6-0.9,0.6-1.5V13c0-0.2-0.1-0.3-0.3-0.3c-0.2,0-0.3,0.1-0.3,0.3
		v7.7c0,0.8-0.7,1.5-1.5,1.5c0,0,0,0,0,0c-0.9,0-1.5-0.7-1.5-1.5V6.1c0-0.3,0.2-0.5,0.5-0.5h2.6v6.1c0,0.2,0.1,0.3,0.3,0.3
		c0.2,0,0.3-0.1,0.3-0.3V3.3c0-0.3,0.2-0.5,0.5-0.5h16.4C22.8,2.8,23,3,23,3.3v17.4c0,0.9-0.7,1.5-1.5,1.5h-5.2
		c-0.2,0-0.3,0.1-0.3,0.3c0,0.2,0.1,0.3,0.3,0.3h5.2c1.2,0,2.2-1,2.2-2.2V3.3C23.7,2.7,23.2,2.1,22.6,2.1z"/>
	<path class="st0" d="M8,13.9h13c0.2,0,0.3-0.1,0.3-0.3c0-0.2-0.1-0.3-0.3-0.3H8c-0.2,0-0.3,0.1-0.3,0.3C7.7,13.8,7.9,13.9,8,13.9z"
		/>
	<path class="st0" d="M8,18.6h13c0.2,0,0.3-0.1,0.3-0.3S21.2,18,21,18H8c-0.2,0-0.3,0.1-0.3,0.3S7.9,18.6,8,18.6z"/>
	<path class="st0" d="M8,9h13c0.2,0,0.3-0.1,0.3-0.3S21.2,8.4,21,8.4H8c-0.2,0-0.3,0.1-0.3,0.3S7.8,9,8,9z"/>
</g>
</svg>
