<?xml version="1.0" encoding="utf-8"?>
<!-- Generator: Adobe Illustrator 24.1.3, SVG Export Plug-In . SVG Version: 6.00 Build 0)  -->
<svg version="1.1" id="Camada_1" xmlns="http://www.w3.org/2000/svg" xmlns:xlink="http://www.w3.org/1999/xlink" x="0px" y="0px"
	 viewBox="0 0 25 25" style="enable-background:new 0 0 25 25;" xml:space="preserve">
<style type="text/css">
	.st0{fill:#FF5757;}
</style>
<g>
	<polygon class="st0" points="22.2,4.5 20.5,2.8 12.5,10.8 8,6.3 6.3,8 10.8,12.5 6.3,17 8,18.7 12.5,14.2 17,18.7 18.7,17 
		14.2,12.5 	"/>
	<path class="st0" d="M22.6,8.1l-1.3,0.6c0.4,0.9,0.7,2,0.8,3c0.5,5.3-3.5,10-8.7,10.4c-5.3,0.5-10-3.5-10.4-8.7
		c-0.2-2.6,0.6-5,2.2-7c1.7-2,4-3.2,6.5-3.4c1.7-0.1,3.3,0.1,4.8,0.8l0.6-1.3c-1.7-0.8-3.6-1.1-5.5-0.9C8.6,1.8,6,3.2,4.1,5.4
		c-1.9,2.3-2.8,5.1-2.5,8c0.5,5.7,5.3,10,10.9,10c0.3,0,0.6,0,1,0c6-0.5,10.5-5.9,10-11.9C23.4,10.4,23.1,9.2,22.6,8.1z"/>
</g>
</svg>
