<?xml version="1.0" encoding="utf-8"?>
<!-- Generator: Adobe Illustrator 24.1.3, SVG Export Plug-In . SVG Version: 6.00 Build 0)  -->
<svg version="1.1" id="Camada_1" xmlns="http://www.w3.org/2000/svg" xmlns:xlink="http://www.w3.org/1999/xlink" x="0px" y="0px"
	 viewBox="0 0 50 50" style="enable-background:new 0 0 50 50;" xml:space="preserve">
<style type="text/css">
	.st0{fill:#F98F03;}
	.st1{fill:#EBF0F3;}
	.st2{fill:#FFFFFF;}
	.st3{fill:#44C4A1;}
</style>
<g>
	<path class="st0" d="M39.6,3v39.8H8.8c-0.7,0-1.3-0.6-1.3-1.2V9.2l8.1-7.4h22.7C39,1.8,39.6,2.3,39.6,3z"/>
	<polygon class="st1" points="15.6,1.7 15,9.7 7.5,9.2 	"/>
	<rect x="16" y="12.9" class="st2" width="18.1" height="1.8"/>
	<rect x="16" y="18.6" class="st2" width="18.1" height="1.8"/>
	<circle class="st3" cx="30.4" cy="36.1" r="12.1"/>
	<path class="st1" d="M27.8,42.9c-0.4,0-0.7-0.1-1-0.4l-3.8-3.8c-0.3-0.3-0.4-0.6-0.4-1c0-0.4,0.1-0.7,0.4-1c0.3-0.3,0.6-0.4,1-0.4
		s0.7,0.1,1,0.4l2.4,2.4c2.2-4,5.1-7.3,8.4-9.6c0.2-0.2,0.5-0.2,0.8-0.2c0.4,0,0.9,0.2,1.1,0.6c0.2,0.3,0.3,0.7,0.2,1
		c-0.1,0.4-0.3,0.7-0.6,0.9c-3.4,2.3-6.3,5.8-8.4,10.2c-0.2,0.4-0.6,0.7-1,0.7C28,42.9,27.9,42.9,27.8,42.9z"/>
</g>
</svg>
