<?xml version="1.0" encoding="utf-8"?>
<!-- Generator: Adobe Illustrator 24.2.1, SVG Export Plug-In . SVG Version: 6.00 Build 0)  -->
<svg version="1.1" id="Camada_1" xmlns="http://www.w3.org/2000/svg" xmlns:xlink="http://www.w3.org/1999/xlink" x="0px" y="0px"
	 viewBox="0 0 50 50" style="enable-background:new 0 0 50 50;" xml:space="preserve">
<style type="text/css">
	.st0{fill:#F98F03;}
	.st1{fill:#EBF0F3;}
	.st2{fill:#FFFFFF;}
	.st3{fill:#F70F0F;}
</style>
<g>
	<path class="st0" d="M39.6,3v39.8H8.8c-0.7,0-1.3-0.6-1.3-1.2V9.2l8.1-7.4h22.7C39,1.8,39.6,2.3,39.6,3z"/>
	<polygon class="st1" points="15.6,1.7 15,9.7 7.5,9.2 	"/>
	<rect x="16" y="12.9" class="st2" width="18.1" height="1.8"/>
	<rect x="16" y="18.6" class="st2" width="18.1" height="1.8"/>
	<circle class="st3" cx="30.4" cy="36.1" r="12.1"/>
	<path class="st2" d="M35.9,41.5c-0.4,0.4-1.1,0.4-1.6,0l-3.7-3.7L27,41.5c-0.4,0.4-1.1,0.4-1.6,0s-0.4-1.2,0-1.6l3.7-3.7l-3.7-3.7
		c-0.4-0.4-0.4-1.2,0-1.6c0.4-0.4,1.1-0.4,1.6,0l3.7,3.7l3.7-3.7c0.4-0.4,1.2-0.4,1.6,0c0.4,0.4,0.4,1.2,0,1.6l-3.7,3.7l3.7,3.7
		C36.3,40.3,36.3,41,35.9,41.5z"/>
</g>
</svg>
