<?xml version="1.0" encoding="utf-8"?>
<!-- Generator: Adobe Illustrator 24.2.1, SVG Export Plug-In . SVG Version: 6.00 Build 0)  -->
<svg version="1.1" id="Camada_1" xmlns="http://www.w3.org/2000/svg" xmlns:xlink="http://www.w3.org/1999/xlink" x="0px" y="0px"
	 viewBox="0 0 20 20" style="enable-background:new 0 0 20 20;" xml:space="preserve">
<style type="text/css">
	.st0{fill:#4CAF50;}
</style>
<g>
	<path class="st0" d="M10,17.4c-3,0-5.5-1.7-5.5-3.8c0-0.2,0.2-0.4,0.4-0.4s0.4,0.2,0.4,0.4c0,1.7,2.1,3.1,4.8,3.1s4.8-1.4,4.8-3.1
		s-2.1-3.1-4.8-3.1c-3,0-5.5-1.7-5.5-3.8S7,2.7,10,2.7s5.5,1.7,5.5,3.9c0,0.2-0.2,0.4-0.4,0.4c-0.2,0-0.4-0.2-0.4-0.4
		c0-1.7-2.1-3.1-4.8-3.1S5.2,4.8,5.2,6.6S7.4,9.7,10,9.7c3,0,5.5,1.7,5.5,3.9S13,17.4,10,17.4z"/>
	<g>
		<path class="st0" d="M8.8,18.8c-0.2,0-0.4-0.2-0.4-0.4V1.6c0-0.2,0.2-0.4,0.4-0.4s0.4,0.2,0.4,0.4v16.9C9.2,18.7,9,18.8,8.8,18.8z
			"/>
		<path class="st0" d="M11.2,18.8c-0.2,0-0.4-0.2-0.4-0.4V1.5c0-0.2,0.2-0.4,0.4-0.4c0.2,0,0.4,0.2,0.4,0.4v16.9
			C11.6,18.6,11.4,18.8,11.2,18.8z"/>
	</g>
</g>
</svg>
