<?xml version="1.0" encoding="utf-8"?>
<!-- Generator: Adobe Illustrator 24.1.3, SVG Export Plug-In . SVG Version: 6.00 Build 0)  -->
<svg version="1.1" id="Camada_1" xmlns="http://www.w3.org/2000/svg" xmlns:xlink="http://www.w3.org/1999/xlink" x="0px" y="0px"
	 viewBox="0 0 30 30" style="enable-background:new 0 0 30 30;" xml:space="preserve">
<style type="text/css">
	.st0{fill:#E3E4D8;}
	.st1{fill:#D0CEBD;}
	.st2{fill:#B53438;}
	.st3{fill:#FFFFFF;}
</style>
<g>
	<path class="st0" d="M24,26.7H6V1.9h14L24,6V26.7z"/>
	<path class="st1" d="M20,1.9V6h4L20,1.9z"/>
	<path class="st2" d="M6,19.9h18v8.1H6V19.9z"/>
	<g>
		<path class="st3" d="M8.7,26.7c-0.2,0-0.5-0.2-0.5-0.4v-4.5c0-0.2,0.2-0.5,0.5-0.5c0.2,0,0.5,0.2,0.5,0.5v4.5
			C9.2,26.5,8.9,26.7,8.7,26.7z"/>
		<path class="st3" d="M21.3,22.2h-2.7c-0.2,0-0.5-0.2-0.5-0.5c0-0.2,0.2-0.5,0.5-0.5h2.7c0.2,0,0.5,0.2,0.5,0.5
			C21.8,22,21.5,22.2,21.3,22.2z"/>
		<path class="st3" d="M21.3,24.5h-2.7c-0.2,0-0.5-0.2-0.5-0.5c0-0.2,0.2-0.5,0.5-0.5h2.7c0.2,0,0.5,0.2,0.5,0.5
			C21.8,24.2,21.5,24.5,21.3,24.5z"/>
		<path class="st3" d="M18.6,26.7c-0.2,0-0.5-0.2-0.5-0.4v-4.5c0-0.2,0.2-0.5,0.5-0.5c0.2,0,0.5,0.2,0.5,0.5v4.5
			C19.1,26.5,18.8,26.7,18.6,26.7z"/>
	</g>
	<path class="st2" d="M14.7,6.8c0,0-0.6,0.8,0,1.4C15.1,7.3,14.7,6.8,14.7,6.8 M14.9,10.5c-0.3,1.1-0.7,2.3-1.2,3.3
		c0.9-0.4,2-0.7,2.9-0.9C16.1,12.3,15.5,11.4,14.9,10.5 M18.3,13.5c0.4,0.3,0.5,0.4,0.7,0.4c0.1,0,0.4,0,0.5-0.2
		c0.1-0.1,0.1-0.2,0.1-0.2c-0.1,0-0.1-0.1-0.5-0.1C18.9,13.4,18.6,13.4,18.3,13.5 M12.2,15.4c-1,0.5-1.3,1-1.4,1.2
		c0,0,0,0.1,0.2,0.3C11.1,16.9,11.5,16.8,12.2,15.4 M11,17.7c-0.2,0-0.3,0-0.4-0.1c-0.5-0.3-0.5-0.7-0.5-1c0.1-0.7,1-1.5,2.7-2.2
		c0.7-1.5,1.3-3.3,1.7-4.8c-0.4-1-0.9-2.2-0.6-2.9c0.1-0.3,0.3-0.5,0.5-0.5C14.5,6,14.7,6,14.8,6c0.2,0,0.5,0.3,0.6,0.5
		c0.2,0.3,0.2,0.7,0.2,1.1c0,0.4-0.1,0.7-0.2,1.1c-0.1,0.3-0.1,0.5-0.2,0.8c0.6,1.2,1.5,2.5,2.3,3.3c0.6-0.1,1.1-0.2,1.5-0.2
		c0.7,0,1.1,0.2,1.3,0.5c0.1,0.3,0.1,0.6-0.2,1c-0.2,0.3-0.6,0.5-1,0.5c-0.5,0-1.2-0.3-1.9-1c-1.3,0.3-2.8,0.7-4,1.2
		c-0.4,0.8-0.7,1.4-1.1,1.9C11.8,17.4,11.4,17.7,11,17.7"/>
	<path class="st3" d="M10.1,24.9H8.7c-0.2,0-0.5-0.2-0.5-0.5v-2.7c0-0.2,0.2-0.5,0.5-0.5h1.4c1,0,1.8,0.8,1.8,1.8
		C11.8,24.1,11,24.9,10.1,24.9z M9.2,24h0.9c0.5,0,0.9-0.4,0.9-0.9c0-0.5-0.4-0.9-0.9-0.9H9.2V24z"/>
	<path class="st3" d="M14.1,26.7h-0.5c-0.2,0-0.5-0.2-0.5-0.4v-4.5c0-0.2,0.2-0.5,0.5-0.5h0.5c1.5,0,2.7,1.2,2.7,2.7
		S15.6,26.7,14.1,26.7z M14.1,25.8L14.1,25.8L14.1,25.8z M14.1,22.2v3.6c1,0,1.8-0.8,1.8-1.8S15.1,22.2,14.1,22.2z"/>
</g>
</svg>
