<?xml version="1.0" encoding="utf-8"?>
<!-- Generator: Adobe Illustrator 24.1.3, SVG Export Plug-In . SVG Version: 6.00 Build 0)  -->
<svg version="1.1" id="Camada_1" xmlns="http://www.w3.org/2000/svg" xmlns:xlink="http://www.w3.org/1999/xlink" x="0px" y="0px"
	 viewBox="0 0 25 25" style="enable-background:new 0 0 25 25;" xml:space="preserve">
<style type="text/css">
	.st0{fill:#606060;}
</style>
<g>
	<g>
		<g>
			<g>
				<path class="st0" d="M19.2,10.3H8.4V5.9c0-2.2,1.8-4,4-4s4,1.8,4,4v2c0,0.3,0.3,0.6,0.6,0.6c0.3,0,0.6-0.3,0.6-0.6v-2
					c0-2.8-2.3-5.1-5.1-5.1S7.4,3.1,7.4,5.9v4.4H5.7C4.8,10.3,4,11.1,4,12v10.5c0,0.9,0.8,1.7,1.7,1.7h13.6c0.9,0,1.7-0.8,1.7-1.7
					V12C20.9,11.1,20.1,10.3,19.2,10.3z M19.8,22.5c0,0.3-0.3,0.6-0.6,0.6H5.6c-0.3,0-0.6-0.3-0.6-0.6V12c0-0.3,0.3-0.6,0.6-0.6
					h13.6c0.3,0,0.6,0.3,0.6,0.6V22.5L19.8,22.5z"/>
			</g>
		</g>
	</g>
	<g>
		<g>
			<path class="st0" d="M12.4,14.5c-0.9,0-1.5,0.7-1.5,1.5c0,0.5,0.3,1,0.7,1.3v1.9c0,0.4,0.3,0.8,0.9,0.8c0.4,0,0.9-0.3,0.9-0.8
				v-1.8c0.4-0.3,0.7-0.8,0.7-1.3C13.9,15.2,13.3,14.5,12.4,14.5z"/>
		</g>
	</g>
</g>
</svg>
