<?xml version="1.0" encoding="utf-8"?>
<!-- Generator: Adobe Illustrator 24.3.0, SVG Export Plug-In . SVG Version: 6.00 Build 0)  -->
<svg version="1.1" id="Camada_1" xmlns="http://www.w3.org/2000/svg" xmlns:xlink="http://www.w3.org/1999/xlink" x="0px" y="0px"
	 viewBox="0 0 32 32" style="enable-background:new 0 0 32 32;" xml:space="preserve">
<style type="text/css">
	.st0{fill:#499ED0;}
</style>
<g>
	<path class="st0" d="M12,23.5v5.7c0,0.4,0.3,0.8,0.6,0.9c0.1,0,0.2,0,0.3,0c0.3,0,0.6-0.1,0.7-0.4l3.4-4.6L12,23.5z"/>
	<path class="st0" d="M30.4,2c-0.3-0.2-0.7-0.2-1-0.1L1.7,16.4c-0.3,0.2-0.5,0.5-0.5,0.9c0,0.4,0.3,0.7,0.6,0.8l7.7,2.6L26,6.7
		L13.3,22l12.9,4.4c0.1,0,0.2,0,0.3,0c0.2,0,0.3,0,0.5-0.1c0.2-0.1,0.4-0.4,0.4-0.7l3.4-22.8C30.9,2.5,30.7,2.2,30.4,2z"/>
</g>
</svg>
