<?xml version="1.0" encoding="utf-8"?>
<!-- Generator: Adobe Illustrator 24.3.0, SVG Export Plug-In . SVG Version: 6.00 Build 0)  -->
<svg version="1.1" id="Camada_1" xmlns="http://www.w3.org/2000/svg" xmlns:xlink="http://www.w3.org/1999/xlink" x="0px" y="0px"
	 viewBox="0 0 32 32" style="enable-background:new 0 0 32 32;" xml:space="preserve">
<style type="text/css">
	.st0{fill-rule:evenodd;clip-rule:evenodd;fill:#499ED0;}
	.st1{fill:#499ED0;}
</style>
<g>
	<g>
		<path class="st0" d="M11.7,19.7c0.3,0.3,0.3,0.7,0,1l-7.1,6.8c-0.3,0.3-0.7,0.3-1,0l0,0c-0.3-0.3-0.3-0.7,0-1l7.1-6.8
			C11,19.4,11.4,19.4,11.7,19.7L11.7,19.7z"/>
		<path class="st0" d="M11.1,25.8c0.3,0.3,0.3,0.7,0,1l-2.4,2.3c-0.3,0.3-0.7,0.3-1,0l0,0c-0.3-0.3-0.3-0.7,0-1l2.4-2.3
			C10.4,25.5,10.8,25.5,11.1,25.8L11.1,25.8z"/>
		<path class="st0" d="M7.2,18.6c0.3,0.3,0.3,0.7,0,1l-3.5,3.4c-0.3,0.3-0.7,0.3-1,0l0,0c-0.3-0.3-0.3-0.7,0-1l3.5-3.4
			C6.5,18.3,6.9,18.3,7.2,18.6L7.2,18.6z"/>
	</g>
	<path class="st1" d="M19.2,29.9L30.6,2.4c0.1-0.2,0-0.5-0.1-0.7c-0.2-0.2-0.5-0.3-0.7-0.2l-28,10.3c-0.3,0.1-0.4,0.3-0.4,0.6
		c0,0.2,0.1,0.4,0.2,0.5C1.6,13,1.6,13,1.7,13l11.1,5.6L17.9,30c0,0.1,0.1,0.1,0.1,0.2c0,0,0,0,0,0c0.3,0.3,0.7,0.3,1,0
		C19.1,30.1,19.1,30,19.2,29.9z M14.2,18.3l14-13.4L18.5,28L14.2,18.3z M27.2,3.9l-14,13.4l-9.5-4.8L27.2,3.9z"/>
</g>
</svg>
