<?xml version="1.0" encoding="utf-8"?>
<!-- Generator: Adobe Illustrator 24.1.2, SVG Export Plug-In . SVG Version: 6.00 Build 0)  -->
<svg version="1.1" id="Camada_1" xmlns="http://www.w3.org/2000/svg" xmlns:xlink="http://www.w3.org/1999/xlink" x="0px" y="0px"
	 viewBox="0 0 20 20" style="enable-background:new 0 0 20 20;" xml:space="preserve">
<style type="text/css">
	.st0{fill:#0B67BD;}
</style>
<g>
	<g>
		<g>
			<path class="st0" d="M17.4,2.6c-2.8-2.8-7.4-2.9-10.3,0c-2.7,2.7-2.9,7.1-0.3,10l-0.6,0.6c-0.4-0.4-1.2-0.4-1.6,0l0,0L0.8,17
				c-0.4,0.4-0.4,1.2,0,1.6l0,0l0.5,0.5c0.4,0.4,1.2,0.4,1.6,0l3.8-3.8c0.4-0.4,0.4-1.2,0-1.6l0,0l0.6-0.6c3,2.7,7.6,2.5,10.3-0.5
				C20.2,9.8,20.1,5.4,17.4,2.6z M6.3,14.8l-3.8,3.8c-0.1,0.1-0.4,0.1-0.5,0l-0.5-0.5c-0.1-0.1-0.1-0.4,0-0.5l3.8-3.8
				c0.2-0.1,0.4-0.1,0.5,0l0.5,0.5C6.4,14.4,6.4,14.7,6.3,14.8z M16.8,12.4c-2.5,2.5-6.7,2.5-9.2,0s-2.5-6.7,0-9.2s6.7-2.5,9.2,0
				C19.4,5.7,19.4,9.8,16.8,12.4z"/>
		</g>
	</g>
</g>
</svg>
